<?xml version="1.0" encoding="utf-8"?>
<svg version="1.1" id="Layer_1"
xmlns="http://www.w3.org/2000/svg"
xmlns:xlink="http://www.w3.org/1999/xlink"
xmlns:author="http://www.sothink.com"
width="548px" height="596px"
xml:space="preserve">
<g id="PathID_114" transform="matrix(0.0352941, 0, 0, 0.0352941, 48, 37.8)">
<path style="fill:#FFFF99;fill-opacity:1" d="M236 -660.5q0 25 -16.5 168q-16.5 143 -29 276.5l-39 0q-11 -133.5 -27 -276.5q-16.5 -143 -16.5 -168q0 -28.5 18 -48q18 -19.5 46 -19.5q28 0 46 19.5q18 19 18 48l0 0M240.5 -57.5q0 28 -20 48q-20.5 19.5 -48.5 19.5q-28 0 -48 -19.5q-20.5 -20 -20.5 -48q0 -28 20.5 -48q20 -20.5 48 -20.5q28 0 48.5 20.5q20 20 20 48l0 0" />
</g>
<g id="PathID_115" transform="matrix(0.0352941, 0, 0, 0.0352941, 96, 37.8)">
<path style="fill:#FFFF99;fill-opacity:1" d="M362.5 -709q0 20 -13 77q-13 57 -29 148l-31 0q-11.5 -74 -25.5 -141q-14.5 -67 -14.5 -84q0 -23 14 -39.5q14 -16.5 42.5 -16.5q27.5 0 42 16.5q14.5 16.5 14.5 39.5l0 0M171.5 -709q0 20 -13 77q-13 57 -29 148l-30.5 0q-13.5 -85 -26.5 -145q-13.5 -60.5 -13.5 -80q0 -23 14 -39.5q14 -16.5 42.5 -16.5q27 0 41.5 16.5q14.5 16.5 14.5 39.5l0 0" />
</g>
<g id="PathID_116" transform="matrix(0.0352941, 0, 0, 0.0352941, 144, 37.8)">
<path style="fill:#FFFF99;fill-opacity:1" d="M581.5 -372.5l-125 0l-35.5 125.5l130.5 0l0 61.5l-147.5 0l-54 185.5l-55 0l54 -185.5l-109.5 0l-54 185.5l-55 0l54 -185.5l-107.5 0l0 -61.5l124.5 0l36 -125.5l-130.5 0l0 -61.5l148 0l52.5 -181l55 0l-52.5 181l109 0l53 -181l55 0l-52.5 181l107 0l0 61.5M404 -373.5l-112 0l-37 127.5l111 0l38 -127.5" />
</g>
<g id="PathID_117" transform="matrix(0.0352941, 0, 0, 0.0352941, 192, 37.8)">
<path style="fill:#FFFF99;fill-opacity:1" d="M509 -290q20 19.5 31.5 45.5q11 26 11 62q0 78.5 -60 132q-60 53 -151 59l0 141l-41 0l0 -140q-99 -2 -160.5 -47q-61.5 -45.5 -61.5 -112.5q0 -29.5 13 -45q13 -16 36.5 -16q26.5 0 41.5 13.5q15 13 15 31q0 13.5 -9.5 41q-9.5 27 -12 37q14.5 26 50.5 42q35.5 16 87 16.5l0 -253q-22 -8 -38 -14q-16.5 -6 -43 -17q-57.5 -23.5 -90 -61.5q-32.5 -38.5 -32.5 -99.5q0 -72 60 -121.5q60 -49.5 143.5 -51l0 -114.5l41 0l0 114.5q49.5 1 87.5 14.5q38 13.5 62 33.5q24 20 36.5 44q12 24 12 46.5q0 22.5 -10.5 38.5q-10.5 15.5 -34.5 15.5q-24.5 0 -40.5 -12.5q-16.5 -12.5 -16.5 -28q0 -18.5 4 -36.5q4 -18.5 7 -32.5q-1.5 -3 -10 -10.5q-8.5 -8 -20 -14.5q-12.5 -7 -33 -12.5q-20.5 -5.5 -44 -5.5l0 232q19.5 7 33 12.5q13 5 32.5 12.5q31 12 57 26.5q26 14 46 34l0 0M299.5 -387.5l0 -220q-48.5 0 -81.5 27.5q-33 27.5 -33 67.5q0 43.5 20.5 69.5q20.5 26 62 43q6 2.5 15 6q9 3.5 17 6.5l0 0M457.5 -142q0 -41 -21 -71q-21.5 -30.5 -72.5 -50.5q-6.5 -2.5 -12 -4.5q-6 -2 -11.5 -4l0 241.5q58.5 -3.5 88 -33q29 -30 29 -78.5l0 0" />
</g>
<g id="PathID_118" transform="matrix(0.0352941, 0, 0, 0.0352941, 240, 37.8)">
<path style="fill:#FFFF99;fill-opacity:1" d="M394 -541.5q0 88 -47.5 136.5q-47.5 48.5 -122.5 48.5q-75 0 -122 -48.5q-47.5 -48.5 -47.5 -136.5q0 -83 46.5 -134q46 -51 123.5 -51q76.5 0 123 51q46.5 51 46.5 134l0 0M309.5 -541.5q0 -65 -21.5 -107q-21.5 -41.5 -63.5 -41.5q-43 0 -64 41.5q-21.5 42 -21.5 107q0 66.5 21.5 107.5q21.5 41 63.5 41q42 0 64 -41q21.5 -41 21.5 -107.5l0 0M782.5 -169q0 88 -47.5 136.5q-47.5 48.5 -122.5 48.5q-75 0 -122 -48.5q-47.5 -48.5 -47.5 -136.5q0 -83 46.5 -134q46 -51 123.5 -51q76.5 0 123 51q46.5 51 46.5 134l0 0M698 -169q0 -65 -21.5 -107q-21.5 -41.5 -63.5 -41.5q-43 0 -64 41.5q-21.5 42 -21.5 107q0 66.5 21.5 107.5q21.5 41 63.5 41q42 0 64 -41q21.5 -41 21.5 -107.5l0 0M749.5 -712l-590 712l-68.5 0l588.5 -712l70 0" />
</g>
<g id="PathID_119" transform="matrix(0.0352941, 0, 0, 0.0352941, 288, 37.8)">
<path style="fill:#FFFF99;fill-opacity:1" d="M727 -414q-29.5 2.5 -59.5 12q-30 9 -46 29q-10.5 12 -21 35.5q-11 23.5 -26 55.5q-15 32 -30.5 63q-15.5 31 -40 62q20 24 49 52.5q29 28 49.5 40.5q20 11.5 57 19.5q36.5 8 60 9l0 35.5l-206 0l-74.5 -85q-16.5 18 -37.5 37.5q-21.5 19 -45 33q-26 15 -52 23.5q-26.5 8.5 -62 8.5q-37 0 -73.5 -10.5q-36.5 -11 -66.5 -34.5q-29 -23 -47 -59q-18 -36 -18 -86q0 -62 33 -112q32.5 -50.5 122 -107q-40.5 -53.5 -63 -92.5q-22.5 -39 -22.5 -87.5q0 -34.5 14 -63q13.5 -29 38.5 -50.5q23 -19.5 56 -30.5q33 -11 67 -11q40 0 70.5 13q30 12.5 49 33q17.5 19 27 44q9 25 9 50q0 60 -37 103.5q-37.5 43 -102.5 77.5q47 63.5 92 116q45 52 86 102.5q33.5 -53.5 52 -100.5q18.5 -47.5 18.5 -83.5q0 -16 -23 -25q-23.5 -9.5 -64.5 -18l0 -35.5l267.5 0l0 35.5M373.5 -576.5q0 -51 -22.5 -78q-22.5 -27.5 -63.5 -27.5q-23.5 0 -39 9.5q-15.5 9.5 -26.5 24q-10 14 -14.5 30q-4.5 16 -4.5 28.5q0 34.5 18 70q18 35 56 85q51 -29 74 -62.5q22.5 -34 22.5 -79l0 0M412.5 -114q-46.5 -59 -104.5 -129q-58.5 -70.5 -93.5 -119q-40.5 28 -57 66q-17 37.5 -17 86q0 68 39 113q38.5 44.5 103.5 44.5q36.5 0 72 -15.5q35 -16 57.5 -46l0 0" />
</g>
<g id="PathID_120" transform="matrix(0.0352941, 0, 0, 0.0352941, 336, 37.8)">
<path style="fill:#FFFF99;fill-opacity:1" d="M166.5 -709q0 20 -13 77q-13 57 -29 148l-30.5 0q-13.5 -85 -26.5 -145q-13.5 -60.5 -13.5 -80q0 -23 14 -39.5q14 -16.5 42.5 -16.5q27 0 41.5 16.5q14.5 16.5 14.5 39.5l0 0" />
</g>
<g id="PathID_121" transform="matrix(0.0352941, 0, 0, 0.0352941, 384, 37.8)">
<path style="fill:#FFFF99;fill-opacity:1" d="M350.5 164q-136.5 -17 -214 -137.5q-78 -120.5 -78 -324.5q0 -207.5 78 -328.5q77.5 -121.5 214 -139.5l0 41.5q-96 17.5 -146 122.5q-50 105 -50 305q0 190.5 49 296.5q49 105.5 147 123.5l0 41" />
</g>
<g id="PathID_122" transform="matrix(0.0352941, 0, 0, 0.0352941, 432, 37.8)">
<path style="fill:#FFFF99;fill-opacity:1" d="M325.5 -298q0 204 -77.5 324.5q-78 120.5 -214.5 137.5l0 -41q98 -18 147 -123.5q49 -106 49 -296.5q0 -200 -50 -305q-50 -105 -146 -122.5l0 -41.5q136.5 18 214.5 139.5q77.5 121 77.5 328.5l0 0" />
</g>
<g id="PathID_123" transform="matrix(0.0352941, 0, 0, 0.0352941, 480, 37.8)">
<path style="fill:#FFFF99;fill-opacity:1" d="M441 -549.5q0 18.5 -10.5 27q-10.5 8.5 -27 8.5q-11 0 -52.5 -10.5q-42 -11 -94 -17q22.5 31 42 52q19.5 20.5 32.5 34.5q13.5 14.5 21 25.5q7.5 11 7.5 23.5q0 13.5 -12 23.5q-12 10 -25.5 10q-9 0 -17 -5q-8 -5.5 -13.5 -15q-8 -14.5 -15.5 -46.5q-8 -32 -34.5 -94q-24 59.5 -33.5 94.5q-9.5 34.5 -16.5 46q-6.5 10 -13 15q-7 5 -17.5 5q-14 0 -25.5 -9.5q-12 -9.5 -12 -24q0 -12 7 -22.5q7 -10.5 21.5 -26.5q12.5 -13 33.5 -35.5q20.5 -22.5 41 -51q-49 5 -91 16.5q-42.5 11 -55.5 11q-16.5 0 -27 -8q-10.5 -8.5 -10.5 -27.5q0 -17 10.5 -26q10.5 -9.5 27 -9.5q15 0 53 10.5q37.5 10.5 93.5 16q-19.5 -26.5 -41 -50q-21.5 -24 -33.5 -36.5q-14 -15 -21 -25.5q-7.5 -11 -7.5 -23.5q0 -13.5 12 -23.5q12 -10 25.5 -10q9 0 17 5q7.5 5 13.5 15q7 12 18.5 54q11.5 41.5 31.5 86.5q22.5 -51 33 -89q10 -38.5 17 -51.5q5.5 -9.5 13.5 -14.5q7.5 -5.5 17 -5.5q14 0 26 9.5q11.5 9.5 11.5 24q0 20.5 -27.5 48q-28 27.5 -75.5 87.5q54 -6 94 -16q39.5 -10.5 52.5 -10.5q16.5 0 27 9q10.5 9 10.5 26.5l0 0" />
</g>
<g id="PathID_124" transform="matrix(0.0352941, 0, 0, 0.0352941, 0, 84)">
<path style="fill:#FFFF99;fill-opacity:1" d="M586.5 -248.5l-225.5 0l0 225.5l-63.5 0l0 -225.5l-225.5 0l0 -62.5l225.5 0l0 -225.5l63.5 0l0 225.5l225.5 0l0 62.5" />
</g>
<g id="PathID_125" transform="matrix(0.0352941, 0, 0, 0.0352941, 48, 84)">
<path style="fill:#FFFF99;fill-opacity:1" d="M214.5 -17.5q0 36 -16 68q-16.5 32 -37.5 55q-21.5 24 -45.5 42.5q-24 18.5 -44 29l-23 -33.5q24 -15 43 -30q19 -15 31 -30q15 -17.5 25.5 -38q10.5 -20.5 13.5 -46.5l-25.5 0q-33.5 0 -52 -17.5q-19 -17.5 -19 -47q0 -21 17 -40.5q17 -20 46.5 -20q43 0 64.5 29q21.5 28.5 21.5 79.5l0 0" />
</g>
<g id="PathID_126" transform="matrix(0.0352941, 0, 0, 0.0352941, 96, 84)">
<path style="fill:#FFFF99;fill-opacity:1" d="M340.5 -232l-298 0l0 -79l298 0l0 79" />
</g>
<g id="PathID_127" transform="matrix(0.0352941, 0, 0, 0.0352941, 144, 84)">
<path style="fill:#FFFF99;fill-opacity:1" d="M207.5 -57.5q0 28 -20 48q-20.5 19.5 -48.5 19.5q-28 0 -48 -19.5q-20.5 -20 -20.5 -48q0 -28 20.5 -48q20 -20.5 48 -20.5q28 0 48.5 20.5q20 20 20 48l0 0" />
</g>
<g id="PathID_128" transform="matrix(0.0352941, 0, 0, 0.0352941, 192, 84)">
<path style="fill:#FFFF99;fill-opacity:1" d="M435 -761.5l-345.5 973.5l-65 0l344 -973.5l66.5 0" />
</g>
<g id="PathID_129" transform="matrix(0.0352941, 0, 0, 0.0352941, 240, 84)">
<path style="fill:#FFFF99;fill-opacity:1" d="M513.5 -467q32 38.5 48 90.5q15.5 51.5 15.5 108q0 68 -19.5 122q-19.5 53.5 -53.5 89q-35 36.5 -83 55q-48 18.5 -107 18.5q-64.5 0 -115 -21.5q-50.5 -21.5 -82 -59q-33 -39 -49 -91q-16.5 -52.5 -16.5 -113q0 -59.5 16 -109.5q15.5 -50 49 -90.5q32 -39 82.5 -61.5q50.5 -22.5 115.5 -22.5q68.5 0 117.5 23q49 23 81.5 62.5l0 0M466.5 -268.5q0 -119 -40.5 -184.5q-41 -65.5 -111 -65.5q-71 0 -112 65.5q-41 65.5 -41 184.5q0 113 39.5 182q39 68.5 112.5 68.5q73.5 0 113 -68.5q39.5 -69 39.5 -182l0 0" />
</g>
<g id="PathID_130" transform="matrix(0.0352941, 0, 0, 0.0352941, 288, 84)">
<path style="fill:#FFFF99;fill-opacity:1" d="M404.5 0l-337 0l0 -35.5q15 -1 47 -4q31.5 -3.5 43.5 -7q15.5 -5 24 -16q8 -11.5 8 -34l0 -351l-124.5 0l0 -42l27.5 0q54 0 97 -20q42.5 -20 61 -43l41.5 0q-1.5 32.5 -3 76q-1.5 43.5 -1.5 78l0 296.5q0 17.5 8 31.5q7.5 13.5 22 20q13 5.5 42.5 10q29.5 4.5 44 5l0 35.5" />
</g>
<g id="PathID_131" transform="matrix(0.0352941, 0, 0, 0.0352941, 336, 84)">
<path style="fill:#FFFF99;fill-opacity:1" d="M523.5 0l-468.5 0l0 -68.5q13.5 -15.5 37.5 -34.5q24 -19.5 57 -42q20 -13.5 48 -29.5q28 -16 63.5 -35q39.5 -20.5 61 -36.5q21 -16 38.5 -39.5q11.5 -15.5 18.5 -39q7 -23 7 -66q0 -62.5 -33.5 -92q-33.5 -29 -86 -29q-32.5 0 -61.5 13q-29 12.5 -43.5 35q3.5 16 9 38q5 22 5 43q0 19 -15.5 34q-16 14.5 -47 14.5q-25 0 -38.5 -17q-13.5 -17.5 -13.5 -46.5q0 -27 15 -54q15 -27.5 43 -50.5q27.5 -22.5 68 -36.5q40.5 -14 87.5 -14q102.5 0 163 45.5q60 46 60 122.5q0 36.5 -10.5 66.5q-11 29.5 -35 52.5q-26.5 25.5 -62 44q-35.5 18 -108.5 50.5q-43.5 19.5 -81 41q-37.5 21 -61.5 41l384.5 0l0 89" />
</g>
<g id="PathID_132" transform="matrix(0.0352941, 0, 0, 0.0352941, 384, 84)">
<path style="fill:#FFFF99;fill-opacity:1" d="M243.5 182.5q-47 0 -86 -11.5q-39 -12 -67 -32q-28 -20 -43 -46q-15.5 -26 -15.5 -53.5q0 -24.5 12 -44q12 -20 38.5 -20q30 0 46 15q15.5 14.5 15.5 33.5q0 16 -5 40.5q-5.5 24.5 -8.5 35q3.5 4.5 13 12q9 7.5 22.5 13.5q16 7.5 33.5 12q17.5 4.5 49.5 4.5q30.5 0 58 -10q28 -10 49 -32q22 -23 34 -53.5q12.5 -31 12.5 -81q0 -27 -6 -53.5q-5.5 -26.5 -21 -46q-15.5 -19.5 -42.5 -30q-26.5 -11 -68 -11l-65.5 0l0 -57.5l43.5 0q69.5 0 100 -38q30.5 -38 30.5 -114.5q0 -62.5 -29.5 -94q-29.5 -32 -84 -32q-26 0 -42.5 6.5q-17 6 -27.5 12q-12.5 7 -20.5 15.5q-8 8.5 -12 12.5q3.5 16 8.5 39.5q5 23 5 44q0 18.5 -15.5 33.5q-16 14.5 -46.5 14.5q-26.5 0 -38.5 -19q-12.5 -19 -12.5 -44q0 -26 14.5 -53q14.5 -27 43 -50.5q28.5 -23.5 69.5 -38q41 -14.5 94.5 -14.5q61.5 0 102 18.5q40 18 63 44q22.5 25.5 31 53.5q8.5 28 8.5 48q0 25 -7 50.5q-7 25 -23 46.5q-17.5 23.5 -46 43q-29 19 -72.5 31l0 8q28 2.5 60 12.5q31.5 10 57 29.5q26.5 20.5 43.5 53q17 32 17 81.5q0 96 -77 156q-77 59.5 -192.5 59.5l0 0" />
</g>
<g id="PathID_133" transform="matrix(0.0352941, 0, 0, 0.0352941, 432, 84)">
<path style="fill:#FFFF99;fill-opacity:1" d="M542 -45l-101.5 0l0 227.5l-96 0l0 -227.5l-320 0l0 -77l350.5 -427.5l65.5 0l0 439l101.5 0l0 65.5M344.5 -110.5l0 -327.5l-270.5 327.5l270.5 0" />
</g>
<g id="PathID_134" transform="matrix(0.0352941, 0, 0, 0.0352941, 480, 84)">
<path style="fill:#FFFF99;fill-opacity:1" d="M421.5 -234.5q33 26 54.5 67q22 41 22 102.5q0 107.5 -73.5 177.5q-73.5 70 -186.5 70q-87.5 0 -148 -41.5q-60.5 -41.5 -60.5 -96.5q0 -25.5 12.5 -44.5q12.5 -19 38.5 -19q30 0 46 16q15.5 15.5 15.5 34q0 16 -5.5 40q-5.5 24 -8.5 35.5q4 3.5 13 9.5q9 6 21.5 11.5q13 5.5 32 10q18.5 4 43.5 4q32 0 60.5 -13q28.5 -13 48 -38.5q21.5 -28 32.5 -63.5q10.5 -36 10.5 -91q0 -70.5 -39 -116.5q-39.5 -46.5 -103.5 -46.5q-40 0 -74.5 15q-35 15 -62.5 50l-33.5 -13l42.5 -361l358 0l0 89l-317.5 0l-26 212q22.5 -16 59 -31.5q37 -16 81 -16q36.5 0 75.5 11.5q39.5 11 72.5 37l0 0" />
</g>
<g id="PathID_135" transform="matrix(0.0352941, 0, 0, 0.0352941, 0, 132)">
<path style="fill:#FFFF99;fill-opacity:1" d="M537.5 -230q0 51.5 -18.5 97q-19 45.5 -50.5 77.5q-36.5 36.5 -80.5 54q-44.5 17.5 -92.5 17.5q-55.5 0 -100.5 -20.5q-45 -20.5 -76.5 -58q-32 -38 -49.5 -93q-17.5 -55 -17.5 -123.5q0 -178 106.5 -300.5q106 -122.5 284.5 -147l9 45l-45 8q-108.5 35 -167.5 109q-59.5 74 -77 179.5q43 -37.5 85 -53q42 -15.5 88.5 -15.5q83.5 0 143 64q59 64 59 159.5l0 0M429 -217q0 -81 -37 -130q-37.5 -49 -100 -49q-37.5 0 -69.5 14q-32.5 14 -62.5 47q-0.5 6 -1.5 28q-1 21.5 -1 34q0 117 38.5 183.5q38 66 100.5 66q59.5 0 96 -51.5q36.5 -52 36.5 -142l0 0" />
</g>
<g id="PathID_136" transform="matrix(0.0352941, 0, 0, 0.0352941, 48, 132)">
<path style="fill:#FFFF99;fill-opacity:1" d="M514.5 -504l-356 686.5l-63 0l335 -635l-196 0q-43.5 0 -68 1q-24.5 1 -45 9.5q-15.5 6.5 -27.5 33.5q-12.5 26.5 -19 68l-30.5 0l0 -196l470 0l0 32.5" />
</g>
<g id="PathID_137" transform="matrix(0.0352941, 0, 0, 0.0352941, 96, 132)">
<path style="fill:#FFFF99;fill-opacity:1" d="M558.5 -188q0 84 -72.5 144.5q-72.5 60.5 -190.5 60.5q-110.5 0 -177 -55.5q-66.5 -55.5 -66.5 -143q0 -64.5 39.5 -107.5q39 -43.5 116 -73.5q-63.5 -35.5 -95 -78q-31.5 -42.5 -31.5 -96q0 -81.5 69.5 -136.5q69 -55 165.5 -55q96.5 0 156.5 52q59.5 52 59.5 130.5q0 50.5 -33 96q-33 45 -97 74q83 35.5 120 78.5q36.5 43 36.5 109l0 0M437.5 -551q0 -61 -36 -99q-36.5 -38.5 -93 -38.5q-56.5 0 -92.5 37q-36 36.5 -36 91q0 52.5 41 89q41 36.5 146 78q37.5 -24 54 -63.5q16.5 -39.5 16.5 -94l0 0M458.5 -164.5q0 -31.5 -13.5 -55q-13.5 -24 -39 -43.5q-24.5 -19 -68 -39.5q-44 -21 -95 -42.5q-48 26 -70.5 66.5q-22.5 40 -22.5 91.5q0 73.5 43.5 119q43 45 115 45q69 0 109.5 -40q40.5 -40 40.5 -101.5l0 0" />
</g>
<g id="PathID_138" transform="matrix(0.0352941, 0, 0, 0.0352941, 144, 132)">
<path style="fill:#FFFF99;fill-opacity:1" d="M528 -257.5q0 86.5 -27.5 163.5q-27.5 76.5 -79 134.5q-50.5 57 -123 95q-73 37.5 -163 49.5l-9 -45l45 -8q107.5 -34 168 -104.5q60.5 -70.5 78 -179q-41 35 -81.5 51.5q-41 16 -92 16q-81.5 0 -141.5 -63.5q-60.5 -63.5 -60.5 -160q0 -103 70 -174q69.5 -71 172 -71q111.5 0 178 79.5q66 79.5 66 215.5l0 0M422 -263.5q0 -117 -38 -183q-38.5 -66.5 -101 -66.5q-59.5 0 -96 51.5q-36.5 51 -36.5 141q0 81 37.5 130q37 49 99.5 49q39 0 71.5 -14q32.5 -14.5 60.5 -46q0 -2 1 -8q0.5 -6 0.5 -17q0 -7 0.5 -17q0.5 -10 0.5 -20l0 0" />
</g>
<g id="PathID_139" transform="matrix(0.0352941, 0, 0, 0.0352941, 192, 132)">
<path style="fill:#FFFF99;fill-opacity:1" d="M228.5 -426.5q0 27.5 -20 47.5q-20.5 20 -48.5 20q-28 0 -48 -20q-20.5 -20 -20.5 -47.5q0 -28 20 -48.5q20 -20 48.5 -20q28.5 0 48.5 20q20 20.5 20 48.5l0 0M228.5 -57.5q0 28 -20 48q-20.5 19.5 -48.5 19.5q-28 0 -48 -19.5q-20.5 -20 -20.5 -48q0 -28 20.5 -48q20 -20.5 48 -20.5q28 0 48.5 20.5q20 20 20 48l0 0" />
</g>
<g id="PathID_140" transform="matrix(0.0352941, 0, 0, 0.0352941, 240, 132)">
<path style="fill:#FFFF99;fill-opacity:1" d="M228.5 -426.5q0 27.5 -20 47.5q-20.5 20 -48.5 20q-28 0 -48 -20q-20.5 -20 -20.5 -47.5q0 -28 20 -48.5q20 -20 48.5 -20q28.5 0 48.5 20q20 20.5 20 48.5l0 0M237 -17.5q0 36 -16 68q-16.5 31.5 -37.5 55q-21.5 24 -45.5 42.5q-24 18.5 -44 29l-23 -33.5q24 -15 43 -30q18.5 -15.5 31 -30q15 -17.5 25.5 -38q10.5 -20.5 13.5 -46.5l-25.5 0q-33.5 0 -52 -17.5q-19 -17.5 -19 -47q0 -21 17 -40.5q17 -20 46.5 -20q43 0 64.5 29q21.5 28.5 21.5 79.5l0 0" />
</g>
<g id="PathID_141" transform="matrix(0.0352941, 0, 0, 0.0352941, 288, 132)">
<path style="fill:#FFFF99;fill-opacity:1" d="M559 -11l-462.5 -240.5l0 -56.5l462.5 -240.5l0 69l-384 199.5l384 200l0 69" />
</g>
<g id="PathID_142" transform="matrix(0.0352941, 0, 0, 0.0352941, 336, 132)">
<path style="fill:#FFFF99;fill-opacity:1" d="M581.5 -341.5l-504.5 0l0 -62.5l504.5 0l0 62.5M581.5 -155.5l-504.5 0l0 -62.5l504.5 0l0 62.5" />
</g>
<g id="PathID_143" transform="matrix(0.0352941, 0, 0, 0.0352941, 384, 132)">
<path style="fill:#FFFF99;fill-opacity:1" d="M562 -251.5l-462.5 240.5l0 -69l384 -200l-384 -199.5l0 -69l462.5 240.5l0 56.5" />
</g>
<g id="PathID_144" transform="matrix(0.0352941, 0, 0, 0.0352941, 432, 132)">
<path style="fill:#FFFF99;fill-opacity:1" d="M385.5 -665q27.5 29 41 65.5q13 36 13 78.5q0 93 -59 151.5q-59 58.5 -162 70.5l0 110.5l-46 0l0 -189.5q31.5 -2.5 62.5 -10.5q31 -7.5 55.5 -25q25.5 -18.5 40 -45q14 -26 14 -73q0 -75.5 -31.5 -115.5q-32 -40 -93 -40q-23 0 -40 7q-17.5 6.5 -25.5 12.5q2.5 12 7 34.5q4 22.5 4 34.5q0 18.5 -16 34q-16 15 -46.5 15q-27 0 -38.5 -18.5q-11.5 -18.5 -11.5 -43q0 -20 11 -39q11 -19.5 34.5 -37.5q20 -16 54.5 -27.5q34 -11.5 71 -11.5q53 0 94 17q41 16.5 67.5 44.5l0 0M265.5 -57.5q0 28 -20 48q-20.5 19.5 -48.5 19.5q-28 0 -48 -19.5q-20.5 -20 -20.5 -48q0 -28 20.5 -48q20 -20.5 48 -20.5q28 0 48.5 20.5q20 20 20 48l0 0" />
</g>
<g id="PathID_145" transform="matrix(0.0352941, 0, 0, 0.0352941, 480, 132)">
<path style="fill:#FFFF99;fill-opacity:1" d="M765 59.5q-50 43.5 -118.5 70.5q-69 26.5 -153.5 26.5q-75.5 0 -148.5 -24q-73 -24.5 -131.5 -74q-58 -49.5 -93.5 -123q-35.5 -74 -35.5 -174q0 -85.5 32 -166q32 -80.5 91.5 -143.5q57.5 -61.5 142.5 -99q84.5 -38 184.5 -38q86.5 0 150 28q63.5 27.5 104 73q40.5 45 61 103.5q20 58.5 20 122q0 122 -67 206.5q-67 84 -169.5 84q-43 0 -72.5 -21q-29.5 -21.5 -33 -60l-3.5 -1q-24 36.5 -54.5 58.5q-30.5 21.5 -62 21.5q-20.5 0 -42 -6.5q-21 -7 -37.5 -22.5q-16.5 -16.5 -26.5 -43q-9.5 -26.5 -9.5 -65.5q0 -36.5 16.5 -81.5q17 -45.5 45.5 -86.5q28.5 -41.5 73.5 -72q45 -30.5 97.5 -30.5q28 0 50 16q21.5 15.5 26.5 46l3 0l22 -56l74.5 0l-94.5 269q-4.5 12.5 -7 29q-3 16 -3 25.5q0 25.5 13 37.5q13 11.5 33.5 11.5q77.5 0 129.5 -72.5q52 -73 52 -192q0 -59 -18.5 -109q-18.5 -50.5 -56.5 -89q-36.5 -38 -92 -60q-55.5 -22 -127 -22q-68 0 -132.5 26.5q-64.5 26.5 -117.5 78q-51.5 50 -83.5 124.5q-32 74.5 -32 168.5q0 90.5 25 159.5q25 68.5 70.5 115q44.5 45 105 67.5q60.5 22.5 131 22.5q79.5 0 141.5 -21.5q62 -21.5 111.5 -62.5l15.5 25.5M591 -371.5q-7 -40.5 -22.5 -59q-15.5 -18.5 -45.5 -18.5q-32 0 -59 26q-26.5 25.5 -45 61q-19.5 37 -30.5 81q-10.5 44 -10.5 81q0 42.5 10.5 65q10 23 33.5 23q34 0 61 -23.5q27 -23.5 50.5 -66.5l57.5 -169.5" />
</g>
<g id="PathID_146" transform="matrix(0.0352941, 0, 0, 0.0352941, 0, 180)">
<path style="fill:#FFFF99;fill-opacity:1" d="M710.5 0l-295 0l0 -35.5q39 -2.5 65 -10q25.5 -7.5 25.5 -18.5q0 -4.5 -1 -11q-1 -6.5 -3 -11.5l-58.5 -159l-249 0q-14 35 -23 61q-9 26 -16 48q-6.5 21.5 -9 35q-2.5 13.5 -2.5 22q0 20 31.5 31q31.5 11 71 13l0 35.5l-267 0l0 -35.5q13 -1 32.5 -5.5q19.5 -5 32 -13q20 -13.5 31 -28q11 -15 21.5 -41q53.5 -133.5 118 -300q64.5 -166.5 115 -296.5l40 0l236.5 612q7.5 19.5 17 31.5q9.5 12 26.5 23.5q11.5 7 30 12q18.5 4.5 31 5l0 35.5M425 -290l-107.5 -275.5l-106 275.5l213.5 0" />
</g>
<g id="PathID_147" transform="matrix(0.0352941, 0, 0, 0.0352941, 48, 180)">
<path style="fill:#FFFF99;fill-opacity:1" d="M552 -330.5q31 21 51.5 55q20.5 34 20.5 82.5q0 49.5 -21.5 86q-21.5 36.5 -56 60q-33.5 23 -75.5 35q-42.5 12 -87.5 12l-336 0l0 -35.5q12 -1 35 -4q23 -3.5 33 -8q15.5 -7 22 -18.5q6.5 -12 6.5 -30.5l0 -510q0 -17 -5.5 -30q-6 -13 -23 -21q-15 -7.5 -33.5 -11.5q-18.5 -4 -31 -5l0 -35.5l327.5 0q38 0 73 7.5q34.5 7.5 66 26.5q29.5 17.5 48.5 47.5q19 30 19 73q0 37.5 -13.5 67q-13.5 29 -38 50q-23 20 -52.5 34q-30 13.5 -64.5 21l0 4.5q30.5 3.5 68.5 15.5q37.5 11.5 67 32.5l0 0M431 -437.5q18.5 -21.5 26 -47q7 -25.5 7 -61q0 -58.5 -32 -91.5q-32 -33.5 -100.5 -33.5q-16 0 -40.5 1q-24 0.5 -40.5 1l0 273l63.5 0q41 0 70 -10.5q29 -10.5 47 -31.5l0 0M500.5 -211q0 -63 -42 -103.5q-42.5 -40.5 -121 -40.5q-32 0 -54 1q-22 0.5 -33 1l0 250q0 31.5 25.5 47.5q25.5 16 71 16q74.5 0 114 -43.5q39.5 -43.5 39.5 -128l0 0" />
</g>
<g id="PathID_148" transform="matrix(0.0352941, 0, 0, 0.0352941, 96, 180)">
<path style="fill:#FFFF99;fill-opacity:1" d="M361 17q-63 0 -121.5 -25q-58 -25 -103 -72q-44.5 -47 -71 -115q-26.5 -67.5 -26.5 -152.5q0 -85.5 26 -154.5q26 -69.5 72 -119.5q45.5 -49.5 107.5 -76.5q62 -27 132 -27q52.5 0 95 13q42.5 13 81 36.5l20.5 -34l40 0l4.5 253l-41 0q-8 -37 -24 -80q-16 -43.5 -37.5 -73.5q-24 -34 -57 -53q-33 -19.5 -75.5 -19.5q-48 0 -90 21.5q-41.5 21.5 -72 63.5q-29 40.5 -45.5 103q-16.5 62.5 -16.5 140q0 68 17 124.5q17.5 57 49.5 100q32 42.5 75.5 66.5q44 24 97.5 24q40.5 0 74.5 -12.5q34 -13 59 -34q25 -22 44 -50q19 -28 31 -61l37.5 18q-43 105.5 -114 151q-71 45 -169 45l0 0" />
</g>
<g id="PathID_149" transform="matrix(0.0352941, 0, 0, 0.0352941, 144, 180)">
<path style="fill:#FFFF99;fill-opacity:1" d="M728.5 -350.5q0 90.5 -34 157q-34 66.5 -88.5 109q-55 42.5 -123.5 63.5q-68.5 21 -141.5 21l-294 0l0 -35.5q14.5 0 38 -2.5q23 -3 30.5 -6.5q15 -6.5 22 -19q6.5 -13 6.5 -31l0 -512q0 -17 -5.5 -30.5q-6 -13.5 -23 -21.5q-15.5 -7.5 -33.5 -11q-18 -3.5 -31 -4.5l0 -35.5l310 0q64 0 126 20q62 19.5 108 53q62.5 44.5 98 116.5q35.5 72 35.5 169.5l0 0M606 -350.5q0 -71.5 -19 -129.5q-19 -57.5 -55.5 -100.5q-34.5 -41 -84.5 -64.5q-50.5 -23.5 -112 -23.5q-20.5 0 -46 1q-26 0.5 -38.5 1l0 545q0 45.5 26.5 63q26.5 17.5 81.5 17.5q63.5 0 111 -22.5q47.5 -22.5 77 -62.5q31 -42 45.5 -97q14 -55.5 14 -127.5l0 0" />
</g>
<g id="PathID_150" transform="matrix(0.0352941, 0, 0, 0.0352941, 192, 180)">
<path style="fill:#FFFF99;fill-opacity:1" d="M645.5 -209l-13.5 209l-589 0l0 -35.5q15 -1 40 -4q25 -3.5 32.5 -7q16 -7.5 22.5 -19.5q6 -12 6 -30.5l0 -510q0 -16.5 -5.5 -29q-5.5 -13 -23 -21q-13.5 -6.5 -36 -11.5q-23 -5 -36.5 -6l0 -35.5l549 0l0 171l-37.5 0q-10 -38 -43 -80.5q-33.5 -43 -63.5 -47q-15.5 -2 -37 -3q-21.5 -1 -49 -1l-111.5 0l0 282l80 0q38.5 0 56.5 -7q17.5 -7.5 31 -24.5q11 -14.5 19 -38.5q7.5 -24.5 10 -46l37.5 0l0 278l-37.5 0q-2 -24 -10.5 -50.5q-9 -27 -18.5 -39q-15.5 -19.5 -35 -25.5q-20 -6 -52.5 -6l-80 0l0 212.5q0 32 4.5 50.5q4.5 18.5 17.5 28q13 9.5 35.5 12.5q22.5 2.5 64 2.5q16.5 0 43.5 0q27 0 45.5 -2q19 -2 39.5 -7q20 -5.5 28.5 -14.5q23 -24 48.5 -72.5q25 -49 32 -72l36 0" />
</g>
<g id="PathID_151" transform="matrix(0.0352941, 0, 0, 0.0352941, 240, 180)">
<path style="fill:#FFFF99;fill-opacity:1" d="M599.5 -532l-37.5 0q-10.5 -39.5 -43.5 -84.5q-33.5 -45 -64 -49.5q-15.5 -2 -36.5 -3q-21.5 -1 -48.5 -1l-119 0l0 285l81.5 0q37.5 0 58 -7.5q20.5 -8 35 -24q10 -11 18 -34q8.5 -23.5 11 -50l37.5 0l0 279l-37.5 0q-1.5 -22 -10.5 -50q-8.5 -28 -18.5 -40.5q-15 -18.5 -38 -25q-22.5 -7 -55 -7l-81.5 0l0 244q0 16.5 6.5 29.5q6.5 13 23 21q7.5 3.5 32.5 8.5q25 5 38 5.5l0 35.5l-307.5 0l0 -35.5q15 -1 40 -3q25 -2.5 32.5 -6q15 -6.5 22 -19q6.5 -13 6.5 -31l0 -512q0 -16.5 -5.5 -29q-5.5 -13 -23 -21q-13.5 -6.5 -36 -11.5q-23 -5 -36.5 -6l0 -35.5l556.5 0l0 177.5" />
</g>
<g id="PathID_152" transform="matrix(0.0352941, 0, 0, 0.0352941, 288, 180)">
<path style="fill:#FFFF99;fill-opacity:1" d="M735.5 -283q-12 1.5 -32 5q-20.5 3 -33 9q-15 7.5 -21 21.5q-6.5 13.5 -6.5 32l0 55q0 60 1 81q0.5 21 1.5 34.5q-66.5 30 -132.5 46q-66 16 -129.5 16q-68 0 -131 -25.5q-63 -25.5 -110 -72.5q-47.5 -47.5 -75.5 -115.5q-28 -68 -28 -152q0 -81.5 27 -150.5q26.5 -69.5 75.5 -120.5q47.5 -50 113.5 -77.5q65.5 -28 140.5 -28q60 0 104.5 14.5q44.5 14.5 78.5 35l20.5 -34l40 0l4.5 248l-41 0q-10.5 -41 -26 -80.5q-15.5 -40 -40 -71.5q-24.5 -31.5 -60 -50q-35 -19 -84 -19q-54 0 -96 22q-42 21.5 -73 64.5q-30.5 41.5 -47 103.5q-16.5 62 -16.5 139q0 67.5 16.5 127q16 60 47 103.5q31 44.5 77.5 70q46.5 25.5 106 25.5q44 0 80 -13.5q36.5 -13.5 51.5 -28.5q4 -26 4.5 -52.5q0 -26.5 0 -45l0 -39q0 -21 -5.5 -37q-6 -16.5 -24 -24q-16.5 -7.5 -44.5 -11q-28.5 -4 -44.5 -5l0 -36.5l311 0l0 36.5" />
</g>
<g id="PathID_153" transform="matrix(0.0352941, 0, 0, 0.0352941, 336, 180)">
<path style="fill:#FFFF99;fill-opacity:1" d="M783.5 0l-294.5 0l0 -35.5q12 -1 35 -3q22.5 -2 31 -6q15 -6 22 -18q7 -12.5 7 -32l0 -252.5l-333.5 0l0 247q0 17.5 6 29.5q5.5 12 22.5 21q8.5 4.5 30.5 9q21.5 4.5 34 5l0 35.5l-294.5 0l0 -35.5q12 -1 35 -3q22.5 -2 31 -6q15 -6 22 -18q7 -12.5 7 -32l0 -512q0 -16 -6.5 -29q-6.5 -13.5 -22.5 -21q-13.5 -6.5 -32.5 -11.5q-19.5 -5 -33.5 -6l0 -35.5l294.5 0l0 35.5q-14 0.5 -34 4.5q-20.5 4 -30.5 7.5q-17 6 -22.5 20q-6 14 -6 30.5l0 220l333.5 0l0 -215q0 -16 -6.5 -29q-6.5 -13.5 -22.5 -21q-13.5 -6.5 -32.5 -11.5q-19.5 -5 -33.5 -6l0 -35.5l294.5 0l0 35.5q-14 0.5 -34 4.5q-20.5 4 -30.5 7.5q-17 6 -22.5 20q-6 14 -6 30.5l0 511.5q0 17.5 6 29.5q5.5 12 22.5 21q8.5 4.5 30.5 9q21.5 4.5 34 5l0 35.5" />
</g>
<g id="PathID_154" transform="matrix(0.0352941, 0, 0, 0.0352941, 384, 180)">
<path style="fill:#FFFF99;fill-opacity:1" d="M359 0l-319.5 0l0 -35.5q13.5 -1 39 -3q25.5 -2 36 -6q16.5 -6.5 24 -17.5q7.5 -11.5 7.5 -31.5l0 -514q0 -17.5 -5.5 -29q-5.5 -12 -26 -20q-15 -6 -37.5 -11q-23 -5.5 -37.5 -6.5l0 -35.5l319.5 0l0 35.5q-15.5 0.5 -37 4q-21.5 3 -37.5 8q-19 6 -25.5 19.5q-6.5 13.5 -6.5 30l0 513.5q0 16.5 7.5 29.5q7 12.5 24.5 20q10.5 4 34.5 9q23.5 4.5 40 5l0 35.5" />
</g>
<g id="PathID_155" transform="matrix(0.0352941, 0, 0, 0.0352941, 432, 180)">
<path style="fill:#FFFF99;fill-opacity:1" d="M503 -674q-14 0.5 -34.5 4q-21 3 -35.5 8q-17 6 -23 20q-6 14 -6 30.5l0 420.5q0 33 -13 70q-13.5 37 -39 66q-29.5 34 -70 53q-41 19 -93.5 19q-81.5 0 -132 -45.5q-51 -46 -51 -123.5q0 -34 17.5 -60q17.5 -26.5 51 -26.5q30 0 48.5 17q18 16.5 18 44q0 16 -6.5 32q-6.5 16 -14.5 28.5q-7.5 11.5 -17 27q-9.5 15.5 -13.5 28q10.5 16.5 33 29q22 12.5 59.5 12.5q36.5 0 60 -16.5q23 -17 34.5 -45q11 -26 16 -64q4.5 -38 4.5 -85l0 -375.5q0 -17.5 -5.5 -29q-6 -12 -24 -21q-15.5 -8 -38.5 -12q-23.5 -4.5 -38.5 -5.5l0 -35.5l313 0l0 35.5" />
</g>
<g id="PathID_156" transform="matrix(0.0352941, 0, 0, 0.0352941, 480, 180)">
<path style="fill:#FFFF99;fill-opacity:1" d="M737.5 0l-199 0q-57.5 -89 -127.5 -176.5q-70.5 -88 -147.5 -170.5l-13 0l0 247q0 16.5 6.5 29.5q6 13 22.5 21q8 3.5 30 8.5q21.5 5 36 5.5l0 35.5l-294.5 0l0 -35.5q11.5 -1 33.5 -3q22 -2 31 -6q15 -6.5 22 -19q6.5 -13 6.5 -31l0 -512q0 -17 -5.5 -29.5q-6 -12.5 -23 -20.5q-13.5 -6.5 -32 -11.5q-18.5 -5 -32.5 -6l0 -35.5l294.5 0l0 35.5q-14 0.5 -35 4.5q-21 4 -31 7.5q-17 6 -23 20q-6 14 -6 30.5l0 245l10 0q45 -38 88.5 -79q43.5 -41.5 79 -82.5q39.5 -45.5 58 -72.5q18 -27.5 18 -48.5q0 -7.5 -9 -12q-9.5 -5 -21.5 -8q-14 -3 -25 -3.5q-11 -1 -18 -1.5l0 -35.5l266 0l0 35.5q-1.5 0 -6.5 0.5q-5 0.5 -11.5 1q-7 0.5 -14 2q-7 1.5 -18 3.5q-17.5 4 -36 13q-19 8.5 -31 21.5q-51.5 58.5 -107.5 121q-55.5 62.5 -110.5 114q76 86 126 148q49.5 62 105.5 132.5q21.5 27 43 43.5q21.5 16 37 24q12.5 6.5 32 10q19.5 3.5 32.5 4l0 35.5" />
</g>
<g id="PathID_157" transform="matrix(0.0352941, 0, 0, 0.0352941, 0, 228)">
<path style="fill:#FFFF99;fill-opacity:1" d="M618.5 -211l-15 211l-554.5 0l0 -35.5q12 -1 35 -3.5q22.5 -2.5 31.5 -6.5q15 -6.5 22 -19q6.5 -12.5 6.5 -32l0 -508q0 -17 -5.5 -30q-6 -13 -23 -21q-11.5 -6 -32 -11.5q-21 -6 -34.5 -7l0 -35.5l299.5 0l0 35.5q-14 0.5 -36 5q-22.5 4.5 -32.5 8q-17 6 -23 20.5q-6.5 14.5 -6.5 31l0 476.5q0 33 3.5 51.5q3 18 15 28q11.5 9 34.5 12q22.5 2.5 63.5 2.5q18.5 0 38.5 -1q20 -1 38 -4q17.5 -3 32.5 -8q14.5 -5.5 21.5 -13.5q20.5 -23 48 -69.5q27 -47 37.5 -76l35.5 0" />
</g>
<g id="PathID_158" transform="matrix(0.0352941, 0, 0, 0.0352941, 48, 228)">
<path style="fill:#FFFF99;fill-opacity:1" d="M903 0l-313.5 0l0 -35.5q17 -0.5 44 -3.5q26.5 -3 36.5 -8.5q15.5 -9.5 23 -21.5q7 -12.5 7 -31l0 -516l-7.5 0l-242 604.5l-25 0l-230.5 -617l-6.5 0l0 423.5q0 61.5 8 93.5q7.5 32 23.5 46q11 10.5 45.5 20q34.5 9.5 45 10l0 35.5l-286.5 0l0 -35.5q22.5 -2 47.5 -7.5q24.5 -5.5 38 -16.5q17.5 -14 24 -43q6.5 -29 6.5 -97l0 -363q0 -31.5 -7.5 -51.5q-7.5 -20 -21.5 -32.5q-15.5 -13.5 -38 -20q-22.5 -6.5 -44.5 -7.5l0 -35.5l242 0l203 532.5l173.5 -445.5q9.5 -24.5 16.5 -51q6.5 -27 7 -36l231.5 0l0 35.5q-14 0.5 -35.5 4.5q-22 4 -32 7.5q-17 6 -23 20q-6 14 -6 30.5l0 511.5q0 17.5 6 29.5q6 12 23 21q9 5 32 9.5q23 4 36.5 4.5l0 35.5" />
</g>
<g id="PathID_159" transform="matrix(0.0352941, 0, 0, 0.0352941, 96, 228)">
<path style="fill:#FFFF99;fill-opacity:1" d="M777 -674q-14 0.5 -43 8q-29 7.5 -41.5 15.5q-18 12.5 -24 48q-6.5 35.5 -6.5 90l0 519.5l-43.5 0l-430 -580.5l0 366q0 61.5 8 94.5q7.5 33 23.5 47q11.5 11 47.5 20.5q36 9.5 47.5 10l0 35.5l-291 0l0 -35.5q13.5 -1 45.5 -9.5q32 -9 40 -16q17.5 -14 24 -42.5q6.5 -29 6.5 -98.5l0 -349.5q0 -23 -8 -46q-8 -23 -21.5 -35.5q-18 -16.5 -48.5 -28q-31 -12 -50 -13l0 -35.5l202.5 0l399 541l0 -337.5q0 -62 -8 -95.5q-8 -33 -23 -44q-14 -9.5 -45.5 -18.5q-32 -9 -48.5 -10l0 -35.5l288.5 0l0 35.5" />
</g>
<g id="PathID_160" transform="matrix(0.0352941, 0, 0, 0.0352941, 144, 228)">
<path style="fill:#FFFF99;fill-opacity:1" d="M622 -625.5q47 49 73.5 118.5q26.5 69 26.5 153q0 84.5 -27 153.5q-27 69 -75 117.5q-46.5 48 -108 74q-61.5 26 -131 26q-74 0 -136.5 -27.5q-63 -28 -108 -77.5q-45 -48.5 -70.5 -117.5q-26 -69.5 -26 -148.5q0 -86.5 27 -154q27 -68 74.5 -117.5q47 -49 109.5 -75q62 -26 130 -26q70.5 0 133 26.5q62.5 26.5 108 74.5l0 0M547.5 -122.5q28 -45.5 41 -103q12.5 -57.5 12.5 -128.5q0 -73 -14 -134q-14.5 -61 -42 -104q-27.5 -42.5 -69 -66q-41.5 -24 -95 -24q-60 0 -102 27.5q-42 27.5 -68.5 73.5q-25 44 -37 103q-12.5 59 -12.5 124q0 72 13 130q13 58 41 103q27 44 68 69q41 24.5 98 24.5q53.5 0 96.5 -25q43 -25 70 -70l0 0" />
</g>
<g id="PathID_161" transform="matrix(0.0352941, 0, 0, 0.0352941, 192, 228)">
<path style="fill:#FFFF99;fill-opacity:1" d="M592 -534.5q0 55.5 -21.5 98.5q-22 42.5 -60.5 70.5q-38 28 -83.5 41q-45.5 13 -96.5 13l-79.5 0l0 215q0 17.5 6 31q5.5 13 23.5 20q9 3.5 32 6.5q22.5 3 41.5 3.5l0 35.5l-304.5 0l0 -35.5q12 -1 35 -3.5q22.5 -2.5 31.5 -6.5q15 -6.5 22 -19q6.5 -12.5 6.5 -32l0 -512q0 -17.5 -5 -31.5q-5 -14 -23.5 -21q-19 -6.5 -37.5 -9q-19 -3 -32.5 -4l0 -35.5l324 0q99 0 161 48q61.5 47.5 61.5 127l0 0M440 -413.5q17 -24 22.5 -49.5q5.5 -26 5.5 -46.5q0 -28.5 -6.5 -58q-7 -29.5 -23.5 -51.5q-17.5 -23.5 -46 -36.5q-28.5 -13 -71 -13l-70.5 0l0 313.5l51 0q54 0 88 -16.5q33.5 -17 50.5 -42l0 0" />
</g>
<g id="PathID_162" transform="matrix(0.0352941, 0, 0, 0.0352941, 240, 228)">
<path style="fill:#FFFF99;fill-opacity:1" d="M622 -625.5q47 49 73.5 118.5q26.5 69 26.5 153q0 67 -17.5 124q-17.5 57 -49.5 102q-30.5 43 -72.5 75q-42 32 -94 50.5q1 55 39.5 99q38.5 43.5 83 43.5q41 0 62.5 -2.5q21.5 -3 35.5 -5.5l0 39.5q-22.5 6.5 -56 14q-34 7 -94 7q-33.5 0 -65.5 -9.5q-32 -10 -58 -31.5q-26 -21.5 -43 -54.5q-17.5 -33 -22.5 -81q-71.5 -2.5 -132.5 -30.5q-61 -28.5 -104.5 -77.5q-44 -49.5 -68.5 -116q-24.5 -67 -24.5 -146q0 -86.5 27 -154q27 -68 74.5 -117.5q47 -49 109.5 -75q62 -26 130 -26q70.5 0 133 26.5q62.5 26.5 108 74.5l0 0M547.5 -122.5q28 -45.5 41 -103q12.5 -57.5 12.5 -128.5q0 -73 -14 -134q-14.5 -61 -42 -104q-27.5 -42.5 -69 -66q-41.5 -24 -95 -24q-60 0 -102 27.5q-42 27.5 -68.5 73.5q-25 44 -37 103q-12.5 59 -12.5 124q0 72 13 130q13 58 41 103q27 44 68 69q41 24.5 98 24.5q53.5 0 96.5 -25q43 -25 70 -70l0 0" />
</g>
<g id="PathID_163" transform="matrix(0.0352941, 0, 0, 0.0352941, 288, 228)">
<path style="fill:#FFFF99;fill-opacity:1" d="M740 0l-191 0q-63.5 -99.5 -114.5 -172q-51.5 -72.5 -111.5 -149.5l-72.5 0l0 225q0 17.5 5.5 31q5.5 13 23.5 20q9 3.5 31.5 6.5q22.5 3 38 3.5l0 35.5l-300 0l0 -35.5q12 -1 35 -3.5q22.5 -2.5 31.5 -6.5q15 -6.5 22 -19q6.5 -12.5 6.5 -32l0 -513q0 -17.5 -5 -31q-5 -13.5 -23.5 -20.5q-12.5 -4.5 -32.5 -8q-20 -4 -34 -5l0 -35.5l327.5 0q45 0 84.5 9.5q39.5 9 71.5 29.5q31 20 49.5 52.5q18.5 32 18.5 77.5q0 41 -12.5 72.5q-12.5 31.5 -37 54.5q-22.5 21.5 -54 37.5q-31.5 15.5 -69.5 26.5q52.5 69.5 87.5 117q34.5 47.5 85 115.5q22 30 40 44.5q17.5 14 35 23q13 6.5 32.5 10q19.5 3.5 32.5 4l0 35.5M477 -528.5q0 -64.5 -37 -102.5q-37 -37.5 -104.5 -37.5l-85 0l0 304l65.5 0q69 0 115 -44q46 -44.5 46 -120l0 0" />
</g>
<g id="PathID_164" transform="matrix(0.0352941, 0, 0, 0.0352941, 336, 228)">
<path style="fill:#FFFF99;fill-opacity:1" d="M490.5 -325.5q22.5 25 33.5 55q10.5 29.5 10.5 69q0 94 -69.5 155q-69.5 61 -172.5 61q-47.5 0 -95 -14.5q-47.5 -15 -82 -36l-21.5 36.5l-40 0l-7 -243l40.5 0q12.5 45 29.5 81.5q16.5 36 44 67.5q26 29.5 61 47q34.5 17.5 80.5 17.5q34.5 0 60.5 -9q25.5 -9 41.5 -25.5q16 -16.5 24 -39q7.5 -22 7.5 -51q0 -42.5 -24 -79.5q-24 -37 -71.5 -56q-32.5 -13 -74.5 -28.5q-42 -15.5 -72.5 -29.5q-60 -27 -93 -71q-33.5 -43.5 -33.5 -114q0 -40.5 16.5 -75.5q16.5 -35 47 -62.5q29 -26 68.5 -41q39.5 -14.5 82.5 -14.5q49 0 88 15q38.5 15 70.5 35l20.5 -34l40 0l4 235.5l-40.5 0q-11 -40.5 -24.5 -77.5q-14 -37 -36 -67q-21.5 -29 -52.5 -46q-31 -17.5 -76 -17.5q-47.5 0 -81 30.5q-33.5 30.5 -33.5 74.5q0 46 21.5 76.5q21.5 30 62.5 49.5q36.5 17.5 72 30.5q35 12.5 68 27q30 13 58 29.5q27.5 16.5 48 38.5l0 0" />
</g>
<g id="PathID_165" transform="matrix(0.0352941, 0, 0, 0.0352941, 384, 228)">
<path style="fill:#FFFF99;fill-opacity:1" d="M626 -517l-34.5 0q-4.5 -18 -16.5 -42.5q-11.5 -25 -26 -47q-15 -23 -33 -40q-17.5 -17.5 -34 -20q-16 -2 -39.5 -3q-23.5 -1 -43.5 -1l-29 0l0 567.5q0 16.5 7 30.5q7 13.5 24.5 21q9 3.5 38 9.5q28.5 6 44.5 6.5l0 35.5l-335 0l0 -35.5q14 -1 43 -4q28.5 -3 39.5 -7.5q16.5 -6.5 24.5 -18.5q7.5 -12.5 7.5 -33l0 -572l-29 0q-15.5 0 -38.5 1q-23 0.5 -44 3q-16.5 2 -34 20q-18 17.5 -33 40q-15 22.5 -26.5 48q-11.5 25 -16 41.5l-35 0l0 -192.5l618.5 0l0 192.5" />
</g>
<g id="PathID_166" transform="matrix(0.0352941, 0, 0, 0.0352941, 432, 228)">
<path style="fill:#FFFF99;fill-opacity:1" d="M766.5 -674q-14 0.5 -41 6q-27 5.5 -44 16.5q-17 11.5 -23.5 47.5q-6.5 36 -6.5 88l0 308.5q0 59 -24.5 102.5q-24.5 43.5 -64.5 71.5q-39.5 27 -83 39q-44 11.5 -84 11.5q-64 0 -114 -16.5q-50 -17 -84 -45.5q-33.5 -28.5 -50.5 -65q-17 -37 -17 -77l0 -419.5q0 -17.5 -5.5 -29q-6 -12 -23.5 -22q-12.5 -7 -32 -11q-19.5 -4.5 -32 -5.5l0 -35.5l295.5 0l0 35.5q-14 0.5 -35 4.5q-21.5 4 -31.5 7.5q-17 6 -22.5 20q-6 14 -6 30.5l0 391.5q0 28.5 6.5 60q6 31 24.5 58q19.5 27.5 53 45q33.5 17.5 92 17.5q55 0 92.5 -17.5q37 -17.5 58.5 -46q20.5 -27 29 -56.5q8.5 -29.5 8.5 -59.5l0 -290.5q0 -55.5 -8 -91q-8 -35 -23.5 -46q-17.5 -12.5 -47.5 -19.5q-30.5 -7 -46.5 -8l0 -35.5l290 0l0 35.5" />
</g>
<g id="PathID_167" transform="matrix(0.0352941, 0, 0, 0.0352941, 480, 228)">
<path style="fill:#FFFF99;fill-opacity:1" d="M703.5 -674q-13 0.5 -31.5 6q-18.5 5 -30.5 12.5q-17 10.5 -27 27q-10.5 16.5 -20.5 39q-33.5 79.5 -100.5 248q-67 168 -138 350.5l-41.5 0q-72 -193.5 -139 -373q-67 -179.5 -91 -242.5q-6 -15.5 -16 -27q-10 -12 -26.5 -22.5q-13.5 -8.5 -30 -12.5q-16.5 -4.5 -30.5 -5.5l0 -35.5l293.5 0l0 35.5q-37.5 2 -63 7.5q-26 5.5 -26 19.5q0 5.5 2 13q2 7.5 3.5 12q18.5 49 60 160q41.5 110.5 118 315.5q38 -92.5 87.5 -219q49.5 -126 66.5 -173q16.5 -45.5 19.5 -63q2.5 -17.5 2.5 -28.5q0 -11.5 -10 -19q-10.5 -8 -27.5 -13.5q-16.5 -5 -33.5 -7.5q-17 -2.5 -34.5 -4l0 -35.5l264 0l0 35.5" />
</g>
<g id="PathID_168" transform="matrix(0.0352941, 0, 0, 0.0352941, 0, 276)">
<path style="fill:#FFFF99;fill-opacity:1" d="M1014 -674q-12.5 0.5 -29 6q-16.5 5 -30.5 13.5q-17.5 11 -28 25.5q-11 14 -19 39.5q-35.5 115.5 -82.5 270q-47 154 -101.5 328.5l-46 0l-179 -546.5l-186.5 546.5l-44 0q-49.5 -175 -102.5 -363q-53 -188.5 -71 -252.5q-4.5 -15.5 -13 -27.5q-9 -12 -24 -22q-12.5 -8.5 -29 -12.5q-17 -4.5 -30.5 -5.5l0 -35.5l289 0l0 35.5q-38 2 -64.5 7.5q-27 5.5 -27 18.5q0 5 1.5 13.5q1.5 8 2.5 13q11.5 44 41 145.5q29 101.5 86.5 304l177 -527.5l49 0l179 538.5q36 -124 62 -217q26 -93 43 -159q12 -46.5 15 -63.5q3 -17.5 3 -29.5q0 -17 -23 -28.5q-23.5 -11.5 -75.5 -15.5l0 -35.5l257.5 0l0 35.5" />
</g>
<g id="PathID_169" transform="matrix(0.0352941, 0, 0, 0.0352941, 48, 276)">
<path style="fill:#FFFF99;fill-opacity:1" d="M728.5 0l-332 0l0 -35.5q41 -1 66 -7.5q25.5 -7 25.5 -21q0 -7.5 -11.5 -31q-11.5 -23.5 -29.5 -52.5q-20 -32 -47.5 -75.5q-27.5 -43 -54.5 -82.5q-44 58 -100 139.5q-56 82 -56 96.5q0 16.5 15 24.5q15.5 7.5 67.5 9.5l0 35.5l-265 0l0 -35.5q13 -1 33.5 -3.5q20 -3 33 -9.5q26 -14 42 -30q15.5 -16.5 31.5 -38.5q32 -44 82 -110q50 -65.5 88.5 -119.5q-29 -42.5 -74 -108q-45 -65 -96.5 -139.5q-21 -31.5 -33.5 -44.5q-12 -13 -32.5 -22.5q-12 -5.5 -33.5 -8.5q-21 -3.5 -33.5 -4.5l0 -35.5l328.5 0l0 35.5q-29 1 -60 7.5q-31.5 6 -31.5 19q0 9.5 12.5 33.5q12.5 23.5 29.5 50.5q17.5 28 39 62q21.5 34 52.5 78.5q56.5 -76.5 97.5 -138q41 -61.5 41 -80q0 -16 -18.5 -23.5q-19 -7.5 -63.5 -9.5l0 -35.5l264.5 0l0 35.5q-12.5 0.5 -32.5 4q-20.5 3 -34 9q-26 12.5 -38.5 27q-13 14.5 -34.5 42q-40 51.5 -73.5 97q-34 45.5 -81.5 110.5q40 57 89.5 129q49 72.5 94 138.5q15.5 22.5 35.5 43q20 20 32.5 27.5q12 7 32.5 9q20 1.5 34 2l0 35.5" />
</g>
<g id="PathID_170" transform="matrix(0.0352941, 0, 0, 0.0352941, 96, 276)">
<path style="fill:#FFFF99;fill-opacity:1" d="M657 -674q-8.5 0.5 -27 7q-18.5 6 -26.5 12q-19.5 12 -26.5 18.5q-7 6.5 -27 34q-39 55 -72 111.5q-33 56.5 -82.5 143.5q-18.5 32 -24.5 51.5q-6 19.5 -6 56.5l0 135.5q0 18 7.5 31.5q7 13 24.5 21q10.5 4 37.5 10q27 5.5 43.5 6l0 35.5l-332 0l0 -35.5q14 -1 42 -3.5q28 -3 39 -7.5q18 -7.5 25 -20.5q6.5 -13 6.5 -32l0 -172.5q0 -8 -9.5 -29q-10 -21.5 -23.5 -47.5q-30 -58 -66.5 -125.5q-36.5 -67.5 -63.5 -115.5q-16.5 -28.5 -29 -43q-13 -14.5 -29.5 -25.5q-12 -7.5 -28.5 -11.5q-17 -4 -30.5 -5l0 -35.5l303 0l0 35.5q-51 1 -72 7q-21 6 -21 17q0 3 3 10.5q3 7.5 8.5 19q6.5 13 15 29.5q9 17 17 32.5q23.5 44.5 48 88.5q24.5 44.5 64 115.5q78.5 -126.5 119.5 -197.5q41.5 -70.5 41.5 -84.5q0 -11.5 -8.5 -18.5q-8.5 -7 -22.5 -11q-14.5 -4 -31.5 -5.5q-17 -1 -31.5 -2.5l0 -35.5l246.5 0l0 35.5" />
</g>
<g id="PathID_171" transform="matrix(0.0352941, 0, 0, 0.0352941, 144, 276)">
<path style="fill:#FFFF99;fill-opacity:1" d="M607 -221.5l-23.5 221.5l-570 0l0 -17.5l446.5 -652.5l-163.5 0q-28.5 0 -48 1q-19 1 -35 4q-33 6.5 -74 54.5q-41.5 48 -62.5 101.5l-35 0l21.5 -200.5l531.5 0l0 17.5l-446.5 652.5l168.5 0q42.5 0 90.5 -6q48 -6 62.5 -20.5q32.5 -31 60.5 -76q28 -45 41.5 -79.5l35 0" />
</g>
<g id="PathID_172" transform="matrix(0.0352941, 0, 0, 0.0352941, 192, 276)">
<path style="fill:#FFFF99;fill-opacity:1" d="M350.5 155l-266.5 0l0 -914.5l266.5 0l0 45.5l-177.5 0l0 823l177.5 0l0 46" />
</g>
<g id="PathID_173" transform="matrix(0.0352941, 0, 0, 0.0352941, 240, 276)">
<path style="fill:#FFFF99;fill-opacity:1" d="M455.5 212l-65 0l-345.5 -973.5l66 0l344.5 973.5" />
</g>
<g id="PathID_174" transform="matrix(0.0352941, 0, 0, 0.0352941, 288, 276)">
<path style="fill:#FFFF99;fill-opacity:1" d="M300 155l-266.5 0l0 -46l177.5 0l0 -823l-177.5 0l0 -45.5l266.5 0l0 914.5" />
</g>
<g id="PathID_175" transform="matrix(0.0352941, 0, 0, 0.0352941, 336, 276)">
<path style="fill:#FFFF99;fill-opacity:1" d="M563 -398l-72.5 0l-160 -262l-162.5 262l-72.5 0l206 -330l56.5 0l205 330" />
</g>
<g id="PathID_176" transform="matrix(0.0352941, 0, 0, 0.0352941, 384, 276)">
<path style="fill:#FFFF99;fill-opacity:1" d="M661 141l-663.5 0l0 -50.5l663.5 0l0 50.5" />
</g>
<g id="PathID_177" transform="matrix(0.0352941, 0, 0, 0.0352941, 432, 276)">
<path style="fill:#FFFF99;fill-opacity:1" d="M369.5 -571l-19 16q-51.5 -41 -92 -71.5q-40.5 -31 -60 -47q-19 -16 -26.5 -26q-8 -10 -8 -30.5q0 -14.5 11.5 -26.5q11.5 -12.5 29.5 -12.5q19.5 0 33.5 9q14 9 30 35q17 27.5 40 63q23 35 61 91l0 0" />
</g>
<g id="PathID_178" transform="matrix(0.0352941, 0, 0, 0.0352941, 480, 276)">
<path style="fill:#FFFF99;fill-opacity:1" d="M503 -9q-23.5 8.5 -41 14q-18 5 -40.5 5q-39 0 -62 -18q-23.5 -18.5 -30 -53.5l-3 0q-32.5 36 -69.5 55q-37.5 19 -90 19q-55.5 0 -91 -34q-36 -34 -36 -89q0 -28.5 8 -51q8 -22.5 24 -40.5q12.5 -15 33 -26.5q20.5 -12 38.5 -19q22.5 -8.5 91.5 -31.5q68.5 -23 92.5 -36l0 -49.5q0 -6.5 -2.5 -25q-3 -18.5 -12 -35q-10 -18.5 -28 -32q-18.5 -14 -52 -14q-23 0 -42.5 8q-20 7.5 -28 16q0 10 5 29.5q4.5 19.5 4.5 36q0 17.5 -15.5 32q-16 14.5 -44 14.5q-25 0 -36.5 -17.5q-12 -18 -12 -40q0 -23 16.5 -44q16 -21 42 -37.5q22.5 -14 54.5 -23.5q32 -10 62.5 -10q42 0 73.5 6q31 5.5 56.5 24.5q25.5 18.5 39 50.5q13 31.5 13 81.5q0 71.5 -1.5 127q-1.5 55 -1.5 120.5q0 19.5 7 31q6.5 11.5 20.5 19.5q7.5 4.5 24 5q16 0.5 33 0.5l0 32M328.5 -273q-42.5 12.5 -74.5 24.5q-32 12 -59.5 30q-25 17 -39.5 40.5q-14.5 23.5 -14.5 55.5q0 41.5 22 61q21.5 19.5 55 19.5q35.5 0 62.5 -17.5q27 -17 45.5 -40.5l3 -173" />
</g>
<g id="PathID_179" transform="matrix(0.0352941, 0, 0, 0.0352941, 0, 324)">
<path style="fill:#FFFF99;fill-opacity:1" d="M536.5 -247q0 111 -70 186.5q-70 75.5 -162.5 75.5q-40.5 0 -79.5 -12.5q-39.5 -12.5 -74 -33.5l-37 57.5l-31 -7q2.5 -37 3.5 -89q1 -52 1 -100.5l0 -488.5q0 -17 -7.5 -34q-8 -17 -20 -24.5q-9.5 -6.5 -31.5 -9.5q-22.5 -3.5 -36 -4.5l0 -32l181 -11l7 7.5l0 325l3.5 1q31 -33 68 -49.5q36.5 -16.5 72 -16.5q91 0 152 72q61 72 61 187.5l0 0M432 -243.5q0 -37 -8 -75.5q-8 -38.5 -25 -67q-17 -29 -44.5 -47q-27.5 -18 -66 -18q-35 0 -61 14q-26.5 13.5 -47.5 37l0 287q3 12 12 28q8.5 16 23.5 30.5q15 14 34 23q19 8.5 46.5 8.5q61 0 98.5 -59q37.5 -59 37.5 -161.5l0 0" />
</g>
<g id="PathID_180" transform="matrix(0.0352941, 0, 0, 0.0352941, 48, 324)">
<path style="fill:#FFFF99;fill-opacity:1" d="M264 13q-107 0 -167.5 -71q-60.5 -71 -60.5 -190.5q0 -52 16.5 -97q16 -45.5 47 -82.5q29.5 -35.5 74 -57q44.5 -22 97 -22q72.5 0 118 35q45.5 34.5 45.5 94.5q0 25 -12 44.5q-12 19 -39.5 19q-29.5 0 -45.5 -15q-16.5 -15 -16.5 -33.5q0 -22.5 6 -46q6 -23.5 7 -34.5q-9 -15.5 -26.5 -21q-18 -5 -38.5 -5q-24 0 -45.5 10.5q-21.5 10 -42 37.5q-18.5 25 -30 67.5q-11.5 42.5 -11.5 101.5q0 93 41 152q41.5 58.5 108.5 58.5q48 0 81 -23.5q32.5 -23.5 60.5 -71l32 21q-33 59 -87 93.5q-54 34.5 -111.5 34.5l0 0" />
</g>
<g id="PathID_181" transform="matrix(0.0352941, 0, 0, 0.0352941, 96, 324)">
<path style="fill:#FFFF99;fill-opacity:1" d="M576 -9l-172.5 11l-7.5 -7l0 -46l-4 -1q-26 29 -64 47.5q-38.5 18.5 -79 18.5q-41.5 0 -81 -18.5q-39 -19 -68 -53q-29.5 -34.5 -47 -83q-17 -48.5 -17 -107q0 -53.5 18.5 -101.5q18.5 -48 51 -84q30.5 -33.5 74.5 -53.5q44 -20 90 -20q34.5 0 68 9q33 8.5 57 22l0 -172q0 -21 -7 -38q-7 -17.5 -19.5 -26.5q-14 -9.5 -37.5 -13.5q-24 -4.5 -51.5 -6.5l0 -31l202 -11l7.5 7.5l0 664.5q0 17.5 7 30q6.5 12 19.5 20.5q9.5 6 27.5 7.5q18 1.5 33 2l0 33M395 -95.5l0 -288.5q-4 -13 -13 -28q-9 -15 -22.5 -27.5q-14.5 -12.5 -34 -20.5q-19.5 -8.5 -45.5 -8.5q-29.5 0 -55 15.5q-25 15.5 -44.5 44.5q-18.5 28 -29.5 71.5q-10.5 43 -10.5 95.5q0 42 8 76.5q8 34 27 63.5q17.5 28 44.5 45q27.5 17 64.5 17q40 0 66.5 -17.5q26 -17.5 44 -38.5l0 0" />
</g>
<g id="PathID_182" transform="matrix(0.0352941, 0, 0, 0.0352941, 144, 324)">
<path style="fill:#FFFF99;fill-opacity:1" d="M474 -116q-31 59 -83 94q-52 35 -119.5 35q-59.5 0 -104 -21q-45 -21 -74 -57q-29 -36 -43 -84q-14.5 -48 -14.5 -101.5q0 -48 15.5 -94q15 -46.5 44.5 -83.5q28.5 -35.5 71 -57q42 -22 94.5 -22q54 0 92.5 17q38.5 17 62.5 46.5q23 28 34.5 66q11 38 11 82.5l0 33l-326.5 0q0 48.5 9.5 88q9 40 29 70q19.5 29 51 45.5q31.5 17 75 17q44.5 0 77 -21q32 -20.5 62 -75l35 21.5M363.5 -304q0 -28 -4.5 -60q-5 -31.5 -15.5 -53q-11.5 -23 -31.5 -37.5q-20 -14.5 -51.5 -14.5q-52.5 0 -87 43.5q-35 43.5 -38 121.5l228 0" />
</g>
<g id="PathID_183" transform="matrix(0.0352941, 0, 0, 0.0352941, 192, 324)">
<path style="fill:#FFFF99;fill-opacity:1" d="M403 -714q0 22.5 -12 38q-12 15.5 -36.5 15.5q-15.5 0 -27 -6.5q-12 -6.5 -22 -17.5q-10 -11 -18.5 -25q-8.5 -14 -14.5 -22.5q-33.5 1.5 -51.5 46.5q-18.5 45.5 -18.5 144l0 50.5l127 0l0 48l-127 0l0 354q0 17.5 7 28.5q6.5 11 21 16.5q12 4.5 32 7.5q20 2.5 34.5 3.5l0 33l-260 0l0 -33q11.5 -1 24 -2q12 -1 21 -4q14 -4.5 21 -15.5q6.5 -11.5 6.5 -29.5l0 -359l-97.5 0l0 -48l97.5 0l0 -31.5q0 -112 58.5 -182q58 -69.5 145.5 -69.5q44.5 0 67 17.5q22.5 17.5 22.5 42.5l0 0" />
</g>
<g id="PathID_184" transform="matrix(0.0352941, 0, 0, 0.0352941, 240, 324)">
<path style="fill:#FFFF99;fill-opacity:1" d="M458.5 -51q20 19 31.5 43q11.5 24 11.5 59.5q0 35.5 -15.5 67q-15.5 31 -47 54q-33.5 23.5 -80 36.5q-46.5 13 -115 13q-112 0 -167.5 -32.5q-55.5 -33 -55.5 -96q0 -51 40 -80.5q40 -29.5 102 -32l0 -7q-15 -4.5 -31 -11q-16 -7 -27.5 -16q-13 -10.5 -21 -24.5q-8 -14.5 -8 -35.5q0 -26.5 19 -48.5q18.5 -22.5 56.5 -38.5l0 -7.5q-48 -22.5 -74.5 -57.5q-26.5 -35.5 -26.5 -82q0 -70 52.5 -115q52 -45 133.5 -45q22.5 0 45 4.5q22 4.5 45 11.5l172 0l0 48l-116 0l0 3q18.5 21.5 27.5 47.5q9 26 9 51q0 65 -52.5 110q-53 45 -123 45l-60.5 0q-11.5 4 -24 14.5q-12.5 10.5 -12.5 28.5q0 18.5 10.5 28.5q10.5 9.5 25.5 13q14.5 4 34 5q19 1 39.5 1.5q22 0.5 60.5 3q38 2.5 54 3q23 1 46.5 11q23 10 42 27.5l0 0M323.5 -343.5q0 -58.5 -23.5 -93q-24 -35 -67 -35q-23.5 0 -40 10q-17 9.5 -27.5 27.5q-10 16.5 -14 40q-4.5 23 -4.5 47.5q0 55.5 24.5 90.5q24 35 62.5 35q43 0 66.5 -34.5q23 -35 23 -88l0 0M419.5 70q0 -28 -13 -46q-13 -18 -39.5 -24.5q-14 -2 -57.5 -4.5q-43.5 -2.5 -101 -2.5q-54 10.5 -76.5 35.5q-23 24.5 -23 63.5q0 17.5 7.5 33.5q7.5 16 26 29.5q17.5 13 47 21.5q29.5 8 72 8q73.5 0 116 -28q42 -28.5 42 -86l0 0" />
</g>
<g id="PathID_185" transform="matrix(0.0352941, 0, 0, 0.0352941, 288, 324)">
<path style="fill:#FFFF99;fill-opacity:1" d="M572.5 0l-242.5 0l0 -33q11.5 -1 25.5 -2q14 -1 23 -4q14 -4.5 21 -15.5q6.5 -11.5 6.5 -29.5l0 -253.5q0 -52.5 -25 -81q-24.5 -28.5 -60 -28.5q-26.5 0 -48.5 8.5q-22.5 8 -40 20q-17 12.5 -26 25q-9 12.5 -14 21l0 283.5q0 17 7 28q6.5 11 20.5 17q11 5 23 7.5q11.5 2.5 25.5 3.5l0 33l-241.5 0l0 -33q11.5 -1 24 -2q12.5 -1.5 20.5 -4q14 -4.5 21 -16q7 -11 7 -29l0 -574.5q0 -17 -7.5 -34q-8 -17 -20.5 -25.5q-9 -6.5 -31.5 -9q-23 -3 -37 -4l0 -32l182.5 -11l7 7.5l0 344l2 0q16.5 -16.5 30 -29q13.5 -13 35.5 -27q19 -12 45 -20q25.5 -8 58 -8q66 0 101.5 42q35.5 41.5 35.5 120l0 256.5q0 17.5 6.5 28.5q6 10.5 20.5 16.5q12 4.5 21 7q9.5 2 24.5 3l0 33" />
</g>
<g id="PathID_186" transform="matrix(0.0352941, 0, 0, 0.0352941, 336, 324)">
<path style="fill:#FFFF99;fill-opacity:1" d="M275 0l-238 0l0 -33q11.5 -1 24 -2q12 -1 21 -4q14 -4.5 21 -15.5q6.5 -11.5 6.5 -29.5l0 -304q0 -16 -7 -29.5q-7.5 -13 -20.5 -22q-9.5 -6 -27.5 -10.5q-18 -4 -33 -5l0 -33l174 -11l7 7l0 402q0 17.5 6.5 29q7 11.5 21.5 17q10.5 4.5 21 7.5q10.5 2.5 23.5 3.5l0 33M212.5 -693.5q0 28.5 -18.5 50q-19 21 -46.5 21q-25.5 0 -44 -20q-19 -20.5 -19 -46.5q0 -27.5 19 -48q18.5 -20.5 44 -20.5q28.5 0 47 19.5q18 19 18 44.5l0 0" />
</g>
<g id="PathID_187" transform="matrix(0.0352941, 0, 0, 0.0352941, 384, 324)">
<path style="fill:#FFFF99;fill-opacity:1" d="M215.5 -30q0 55 -16 103.5q-16 48 -42.5 79.5q-28.5 33.5 -64 51.5q-36 17.5 -79 17.5q-44.5 0 -67 -17.5q-22.5 -18 -22.5 -42q0 -21.5 12 -37.5q12 -16.5 35 -16.5q15.5 0 27.5 6.5q12 6.5 21 17q8 9 16.5 22.5q8 13 15.5 25.5q38 0 54.5 -46q16 -46 16 -147.5l0 -371q0 -16 -7.5 -30.5q-8 -15 -20.5 -24q-8 -5.5 -38 -11q-30.5 -5.5 -46 -7l0 -31l198 -11l7 7l0 462M223 -694q0 28.5 -18.5 50q-19 21 -46.5 21q-25.5 0 -44 -20q-19 -20.5 -19 -46.5q0 -27.5 19 -48q18.5 -20.5 44 -20.5q28.5 0 47 19.5q18 19 18 44.5l0 0" />
</g>
<g id="PathID_188" transform="matrix(0.0352941, 0, 0, 0.0352941, 432, 324)">
<path style="fill:#FFFF99;fill-opacity:1" d="M558.5 0l-148.5 0q-39.5 -56.5 -84 -121q-44.5 -64.5 -92.5 -125.5l-41 38.5l0 117q0 18 6.5 30q6.5 11.5 21 17q12 5 23 7.5q11 2.5 25.5 3.5l0 33l-241.5 0l0 -33q11.5 -1 24 -2q12.5 -1.5 20.5 -4q14 -4.5 21 -16q7 -11 7 -29l0 -573.5q0 -18.5 -7.5 -34.5q-8 -16.5 -20.5 -25q-10.5 -8 -32.5 -10.5q-22.5 -2.5 -36 -3.5l0 -32l182.5 -11l7 7.5l0 521.5q39 -39 84.5 -83.5q45 -45 76 -80q4 -4.5 9 -11.5q4.5 -7.5 4.5 -12q0 -13.5 -21.5 -20q-22 -6.5 -42 -9l0 -32l217 0l0 31q-42 12.5 -74 31.5q-32.5 18.5 -49.5 33.5q-12 10 -34 32.5q-22 22.5 -61.5 59q41 50.5 92 121q51.5 70.5 75 102q22 29.5 39.5 38.5q17.5 9 51 11l0 33" />
</g>
<g id="PathID_189" transform="matrix(0.0352941, 0, 0, 0.0352941, 480, 324)">
<path style="fill:#FFFF99;fill-opacity:1" d="M267 0l-240.5 0l0 -33q11.5 -1 24.5 -2q13 -1.5 21.5 -4q14 -4.5 21 -16q7 -11 7 -29l0 -571.5q0 -18 -7.5 -33.5q-8 -16 -20.5 -25q-9 -6 -33 -11q-24 -5 -38.5 -6l0 -32l185.5 -11l7 7.5l0 676.5q0 17.5 6.5 29q6.5 11 21 17q11 5 22 7.5q10.5 2.5 24 3.5l0 33" />
</g>
<g id="PathID_190" transform="matrix(0.0352941, 0, 0, 0.0352941, 0, 372)">
<path style="fill:#FFFF99;fill-opacity:1" d="M879.5 0l-240 0l0 -33q11.5 -1 23.5 -2q11.5 -1 20.5 -4q14 -4.5 21 -15.5q6.5 -11.5 6.5 -29.5l0 -254.5q0 -52 -23.5 -80q-24 -28.5 -59.5 -28.5q-24.5 0 -46 7.5q-21.5 7.5 -39.5 21q-14.5 11 -24 24q-10 12.5 -15 21l0 284.5q0 17.5 6 29q6 11 20.5 17q11.5 4.5 21 7q9 2 24 3l0 33l-235 0l0 -33q11.5 -1 22.5 -2q10.5 -1 19.5 -4q14 -4.5 21 -15.5q6.5 -11.5 6.5 -29.5l0 -254.5q0 -52 -24 -80q-23.5 -28.5 -59 -28.5q-25 0 -46.5 8q-21.5 7.5 -39.5 21q-14.5 11 -24.5 25q-10 13.5 -15 20.5l0 282.5q0 17 7 28.5q7 11.5 21 17.5q10.5 5 21.5 7.5q11 2.5 24.5 3.5l0 33l-239.5 0l0 -33q11.5 -1 24 -2q12 -1 21 -4q14 -4.5 21 -15.5q6.5 -11.5 6.5 -29.5l0 -306q0 -16 -7 -29q-7.5 -12.5 -20.5 -21.5q-9.5 -6 -23.5 -10q-14 -3.5 -29 -4.5l0 -33l165 -11l7 7l0 70.5l3.5 0q12.5 -12.5 30.5 -29.5q18 -17 33.5 -27.5q17.5 -12 44 -20q26 -8 56.5 -8q48 0 82.5 26q34.5 25.5 49.5 62q18 -17.5 31.5 -30.5q14 -13.5 36.5 -28.5q19 -13 44.5 -21q26 -8 57 -8q62.5 0 99 41q36.5 41 36.5 126l0 250.5q0 17.5 6 29q6 11 20.5 17q11.5 4.5 23 7q11 2 25 3l0 33" />
</g>
<g id="PathID_191" transform="matrix(0.0352941, 0, 0, 0.0352941, 48, 372)">
<path style="fill:#FFFF99;fill-opacity:1" d="M580.5 0l-241 0l0 -33q11.5 -1 25.5 -2q13.5 -1 22.5 -4q14 -4.5 21 -15.5q6.5 -11.5 6.5 -29.5l0 -253.5q0 -52.5 -25 -81q-24.5 -28.5 -60 -28.5q-27 0 -49 8.5q-22 8 -39 20q-16.5 11.5 -26 25q-10 13 -14.5 21l0 283.5q0 17 7 28q7 11 21 17q10.5 5 23 7.5q12 2.5 25 3.5l0 33l-241.5 0l0 -33q11.5 -1 24 -2q12 -1 21 -4q14 -4.5 21 -15.5q6.5 -11.5 6.5 -29.5l0 -304q0 -17 -7 -31.5q-7.5 -14 -20.5 -23q-9.5 -6 -22.5 -9q-13 -2.5 -28 -3.5l0 -33l164 -11l7 7l0 69.5l2.5 0q12 -12 30 -28.5q18 -17 34 -27.5q18.5 -12 44 -20q25.5 -8 57.5 -8q71 0 105.5 44.5q34 44 34 117.5l0 256.5q0 17.5 6 28.5q6 10.5 20.5 16.5q12 5 21 7q8.5 2 24 3l0 33" />
</g>
<g id="PathID_192" transform="matrix(0.0352941, 0, 0, 0.0352941, 96, 372)">
<path style="fill:#FFFF99;fill-opacity:1" d="M517 -251.5q0 52 -16.5 102.5q-16.5 50 -47 85q-34.5 40 -80 59.5q-45.5 19.5 -102.5 19.5q-47 0 -89.5 -17.5q-42.5 -18 -75.5 -52q-32.5 -33.5 -51.5 -81.5q-19.5 -48.5 -19.5 -108.5q0 -115.5 67.5 -189q67 -73.5 176.5 -73.5q103.5 0 170.5 70q67.5 69.5 67.5 185.5l0 0M413.5 -250.5q0 -37.5 -7.5 -79q-7.5 -42 -22.5 -71q-16 -31 -42 -49.5q-26 -19 -63.5 -19q-39 0 -66 19q-27.5 19 -44.5 52q-16 30.5 -22.5 69.5q-6.5 39 -6.5 75.5q0 48 8 89q7.5 40.5 24.5 72.5q17 32 43 50.5q25.5 18 64 18q62.5 0 99 -60.5q36.5 -60.5 36.5 -167l0 0" />
</g>
<g id="PathID_193" transform="matrix(0.0352941, 0, 0, 0.0352941, 144, 372)">
<path style="fill:#FFFF99;fill-opacity:1" d="M486.5 -434.5q29.5 35 46 81.5q16 46 16 105.5q0 58.5 -19.5 107q-19.5 48 -51.5 82q-33.5 34.5 -74.5 53q-41 18.5 -87 18.5q-44.5 0 -73 -10q-28.5 -10 -46.5 -23.5l-4 0l0 148.5q0 18 7 30q7 12 21.5 17.5q12 4.5 34.5 8.5q22 4.5 36.5 5l0 33l-275.5 0l0 -33q15.5 -1 30 -2.5q14.5 -1.5 26 -5q15 -5 21 -17.5q6 -12.5 6 -29.5l0 -524.5q0 -15 -7.5 -29q-7.5 -14 -19.5 -22.5q-9 -6 -25 -9q-16 -3.5 -31 -4.5l0 -33l168 -11l7 6l0 55.5l4 1q26 -30 64.5 -50q38.5 -20 76.5 -20q46 0 84.5 19.5q38 19.5 65.5 52.5l0 0M405 -80q20 -31 29.5 -72q9.5 -41 9.5 -91.5q0 -37 -8 -75.5q-8 -38.5 -25 -67q-17 -29 -44.5 -47q-27.5 -18 -66 -18q-37 0 -63 16.5q-26 16 -45 38.5l0 291.5q4.5 13.5 15 28q10 14.5 22.5 25q15.5 12.5 33.5 20.5q18 7.5 44 7.5q28 0 54 -14.5q26 -15 43.5 -42l0 0" />
</g>
<g id="PathID_194" transform="matrix(0.0352941, 0, 0, 0.0352941, 192, 372)">
<path style="fill:#FFFF99;fill-opacity:1" d="M577 222l-267 0l0 -33q15.5 -1 30.5 -2.5q15 -1.5 27 -5q15.5 -5 21.5 -17.5q6 -12.5 6 -29.5l0 -182.5l-3 -1q-8 9 -22.5 21q-15 11.5 -31 19q-20 10.5 -38.5 16.5q-18.5 5.5 -46.5 5.5q-44.5 0 -84.5 -18.5q-39.5 -19 -69 -53.5q-29.5 -34 -47 -83.5q-17 -50 -17 -109.5q0 -56.5 20 -102.5q20 -46.5 53 -81q31.5 -32.5 75.5 -51.5q44.5 -19.5 88 -19.5q32.5 0 57.5 6.5q25 6 43 14.5q15.5 6.5 31 17q15.5 10 22 13.5l43 -65l28.5 4q-2 37 -5 91q-3.5 54 -3.5 94.5l0 456.5q0 17.5 6.5 30q6.5 13 21 19.5q12 5 30.5 8.5q18.5 4 30 5l0 33M395 -91.5l0 -294.5q-4 -12.5 -13.5 -27.5q-9.5 -15.5 -22.5 -27q-14 -12 -34 -20q-20.5 -8 -47 -8q-58 0 -98 60.5q-39.5 60.5 -39.5 166.5q0 42 7.5 76q8 34 27 63.5q18 28 45.5 45q27.5 16.5 69 16.5q36 0 61.5 -15q25.5 -15.5 44 -36l0 0" />
</g>
<g id="PathID_195" transform="matrix(0.0352941, 0, 0, 0.0352941, 240, 372)">
<path style="fill:#FFFF99;fill-opacity:1" d="M413.5 -429.5q0 25.5 -12.5 45.5q-12.5 19.5 -38.5 19.5q-28 0 -42.5 -14.5q-15 -14.5 -15 -32q0 -11 2 -20q1.5 -9 3 -18q-23.5 0 -55 19q-31.5 19 -53.5 54l0 287q0 17.5 7 28.5q6.5 11 21 16.5q12.5 5 32.5 7.5q19.5 2.5 34 3.5l0 33l-260 0l0 -33q11.5 -1 24 -2q12 -1 21 -4q14 -4.5 21 -15.5q6.5 -11.5 6.5 -29.5l0 -304q0 -15.5 -7 -30.5q-7.5 -15 -20.5 -24q-9.5 -6 -22.5 -9q-13 -2.5 -28 -3.5l0 -33l164 -11l7 7l0 69.5l2.5 0q31 -40.5 69 -61.5q38 -21 69.5 -21q31.5 0 51.5 20.5q19.5 20.5 19.5 55l0 0" />
</g>
<g id="PathID_196" transform="matrix(0.0352941, 0, 0, 0.0352941, 288, 372)">
<path style="fill:#FFFF99;fill-opacity:1" d="M361.5 -241.5q20.5 18 31.5 41.5q11 23.5 11 57.5q0 68.5 -51 112q-51.5 43.5 -133 43.5q-43 0 -79 -15.5q-36.5 -15.5 -52 -28.5l-10 32.5l-37.5 0l-5 -171.5l34.5 0q4 19.5 17 45.5q13 26.5 31.5 47.5q19.5 22 47 37q27 15 61 15q48 0 74 -22q26 -22 26 -62.5q0 -21 -8 -36q-8.5 -15.5 -24.5 -27q-16.5 -11.5 -40.5 -20.5q-24 -9.5 -53.5 -18.5q-23.5 -7 -52 -19q-29 -12.5 -49.5 -29q-22 -17.5 -36 -43q-14 -25.5 -14 -60q0 -60.5 45 -102.5q45 -42 120.5 -42q29 0 59.5 7.5q30 7.5 49 18l11.5 -26l36 0l7.5 158.5l-34.5 0q-10.5 -53 -45 -86.5q-35 -33.5 -85 -33.5q-41 0 -64.5 20.5q-23.5 21 -23.5 50q0 22.5 8 37.5q7.5 15 23 25.5q15 10 38 19q22.5 8.5 56 19.5q33 10.5 62.5 24.5q29 14 48 31l0 0" />
</g>
<g id="PathID_197" transform="matrix(0.0352941, 0, 0, 0.0352941, 336, 372)">
<path style="fill:#FFFF99;fill-opacity:1" d="M340.5 -21.5q-32.5 13.5 -61.5 23q-29 9 -71 9q-62 0 -87 -31q-25.5 -31.5 -25.5 -88.5l0 -334l-89 0l0 -48l91 0l0 -153.5l91 0l0 153.5l141.5 0l0 48l-140.5 0l0 275.5q0 31 2.5 52q2 20.5 10.5 36q8 14.5 24 22q16 7.5 43 7.5q12.5 0 37 -2q24 -2.5 34 -6l0 36.5" />
</g>
<g id="PathID_198" transform="matrix(0.0352941, 0, 0, 0.0352941, 384, 372)">
<path style="fill:#FFFF99;fill-opacity:1" d="M564.5 -9l-161 11l-7.5 -7l0 -62.5l-3 0q-12 12.5 -27 27q-15 14 -34.5 25.5q-22.5 13.5 -43.5 20.5q-21 7 -59 7q-65.5 0 -100 -42.5q-34 -43 -34 -124.5l0 -235.5q0 -18 -7 -30.5q-6.5 -12 -19.5 -21q-9 -6 -23 -9q-13.5 -2.5 -28.5 -3.5l0 -33l164.5 -12l7.5 7l0 342.5q0 53.5 24 80.5q24 27 57.5 27q27.5 0 49 -8.5q21.5 -8.5 36 -20q13.5 -10.5 24 -22q10 -12 15.5 -22l0 -279q0 -16.5 -7 -29.5q-7 -12.5 -19.5 -21.5q-9 -6 -26.5 -7.5q-18 -1 -40 -2l0 -33l179.5 -12l7.5 7l0 391q0 17 7 29q7 12 19.5 20.5q9 5.5 21.5 7.5q12.5 1.5 27.5 2l0 33" />
</g>
<g id="PathID_199" transform="matrix(0.0352941, 0, 0, 0.0352941, 432, 372)">
<path style="fill:#FFFF99;fill-opacity:1" d="M523 -462.5q-22.5 4 -42.5 16.5q-20.5 12 -35 43q-29.5 67 -61 140q-31.5 72.5 -65.5 152.5q-10 23 -21 54.5q-11.5 31.5 -21 60.5l-39 0q-47.5 -117.5 -87.5 -214q-40 -97 -83 -198.5q-10 -23 -32 -35.5q-22.5 -13 -45 -16.5l0 -33l228 0l0 35q-15 0.5 -37.5 6q-22.5 6 -22.5 16q0 1.5 2.5 7.5q2.5 6.5 5 14.5q20.5 51 58 142.5q37.5 91 61 147q18 -43 45 -107q27.5 -63.5 59 -142.5q5 -13.5 9.5 -25.5q4.5 -11.5 4.5 -23.5q0 -8.5 -8.5 -15.5q-8 -6.5 -19.5 -11.5q-11.5 -5 -22.5 -7.5q-11 -2.5 -18 -3.5l0 -32l188.5 0l0 30.5" />
</g>
<g id="PathID_200" transform="matrix(0.0352941, 0, 0, 0.0352941, 480, 372)">
<path style="fill:#FFFF99;fill-opacity:1" d="M770.5 -461q-21 2 -45 17.5q-24.5 15.5 -35.5 46.5q-25 73.5 -47 139.5q-22.5 65.5 -50 147.5q-9 26 -18 56q-9.5 30 -17 57.5l-42.5 0l-133 -363.5l-133.5 363.5l-41 0q-37.5 -111 -73 -220q-36 -109.5 -63.5 -190.5q-8 -23.5 -30.5 -37q-22.5 -13.5 -43.5 -16l0 -33l220 0l0 35q-16.5 0.5 -36 5.5q-19 5 -19 16.5q0 2 1.5 8.5q2 6.5 4.5 14q16 52.5 36 117q20.5 64.5 52.5 168l125.5 -354.5l48.5 0l128.5 349.5q21.5 -67 43 -129.5q21 -62.5 37 -117.5q3.5 -13 7 -23.5q3 -11 3 -21.5q0 -9 -8 -16q-8 -7 -19.5 -11.5q-10 -4 -21.5 -6q-12 -2 -17.5 -2l0 -32l187.5 0l0 32" />
</g>
<g id="PathID_201" transform="matrix(0.0352941, 0, 0, 0.0352941, 0, 420)">
<path style="fill:#FFFF99;fill-opacity:1" d="M511 0l-226 0l0 -33q22.5 -2.5 38.5 -5q15.5 -2.5 15.5 -13q0 -4.5 -5 -14q-5 -9.5 -10 -17.5q-12.5 -19.5 -34 -52.5q-22 -32.5 -53.5 -78q-26 32.5 -48 63q-22 31 -46 65.5q-3.5 5 -7.5 12.5q-3.5 7.5 -3.5 12q0 11 14 18.5q14.5 7 43 9.5l0 32l-182.5 0l0 -31q34 -10 54.5 -24q21 -14.5 38.5 -35.5q15.5 -20 43.5 -55q27.5 -35.5 71.5 -95.5q-25.5 -36.5 -62 -89q-37 -52.5 -61 -87.5q-13 -19 -29.5 -30.5q-17 -12 -47.5 -12l0 -33l214.5 0l0 33q-16 0 -31.5 2q-15.5 2 -15.5 9q0 4.5 3 10q3 5.5 7.5 12q11 17 34.5 52.5q23 35.5 50 75q17.5 -24 41 -56q23 -32 42.5 -61q2 -3.5 4 -8.5q2 -5.5 2 -10.5q0 -10.5 -17 -16.5q-17.5 -6.5 -33 -9l0 -32l182 0l0 31q-38.5 10 -60 24q-21.5 13.5 -36.5 31.5q-16.5 20.5 -39 50.5q-23 30 -64 84q45.5 64 74 105q28.5 41 57.5 84.5q14.5 22 32.5 35q17.5 12.5 48.5 14.5l0 33" />
</g>
<g id="PathID_202" transform="matrix(0.0352941, 0, 0, 0.0352941, 48, 420)">
<path style="fill:#FFFF99;fill-opacity:1" d="M-1.5 161q0 -25 13.5 -40.5q14 -16 34.5 -16q16 0 27.5 6q11.5 6 20.5 15.5q7.5 7.5 16 20q8.5 13 13.5 21.5q25 -13.5 59.5 -70.5q35 -56.5 50.5 -99.5q-47.5 -118.5 -86 -212q-38.5 -93.5 -80.5 -193.5q-9.5 -23 -32 -35.5q-22.5 -13 -45 -16.5l0 -33l225 0l0 35q-15 0.5 -36 6q-21 6 -21 13.5q0 3 2.5 10q2 7 5 14.5q19 49.5 58 142.5q39 93.5 60.5 149q22.5 -53 46.5 -110.5q24.5 -57 54.5 -135q3.5 -9.5 10 -26.5q6.5 -16.5 6.5 -28.5q0 -13 -23 -24.5q-22.5 -11 -43 -13.5l0 -32l183 0l0 31q-15 2.5 -39.5 17.5q-24.5 14.5 -36.5 41.5q-59.5 138 -105.5 251.5q-46.5 113.5 -70.5 167q-31.5 70 -56 109.5q-25 39 -48.5 61.5q-23 21 -41.5 28.5q-19 7 -39 7q-39 0 -61 -18.5q-22.5 -18.5 -22.5 -42.5l0 0" />
</g>
<g id="PathID_203" transform="matrix(0.0352941, 0, 0, 0.0352941, 96, 420)">
<path style="fill:#FFFF99;fill-opacity:1" d="M426.5 0l-399 0l0 -26.5l279.5 -426l-69 0q-44 0 -68.5 1.5q-24.5 1.5 -45 10q-14 5.5 -26 31.5q-12.5 26 -21.5 68l-30.5 0l0 -151.5l377 0l0 20.5l-283.5 432q18 0.5 39.5 1q21.5 0 46.5 0q20 0 42 -0.5q21.5 -0.5 55.5 -2.5q20 -1 30.5 -13.5q10 -12.5 15.5 -28.5q5.5 -14.5 13.5 -40q7.5 -25.5 13.5 -49.5l30 0l0 174" />
</g>
<g id="PathID_204" transform="matrix(0.0352941, 0, 0, 0.0352941, 144, 420)">
<path style="fill:#FFFF99;fill-opacity:1" d="M407 166.5q-52.5 0 -94.5 -7q-42 -7.5 -70.5 -27.5q-29 -20.5 -43.5 -54.5q-15 -34.5 -15 -91q0 -30 4 -64.5q3.5 -35 3.5 -62.5q0 -36 -10.5 -59.5q-10.5 -24 -31 -38.5q-20 -14.5 -49.5 -21q-29.5 -6.5 -64 -9l0 -64.5q35 -3 65.5 -10q30 -7.5 48.5 -21q21.5 -15.5 31.5 -39q9.5 -24 9.5 -58q0 -28.5 -3.5 -63q-4 -34.5 -4 -64.5q0 -52 15 -87.5q14.5 -35.5 43.5 -56.5q28.5 -20.5 71 -28q42.5 -8 94 -8l0 41q-20 1 -46.5 5.5q-26 4 -41.5 12.5q-18 10 -29.5 32q-11 21.5 -11 58.5l0 117q0 52.5 -12.5 87q-12.5 34.5 -37 56q-22.5 20 -53.5 32q-31.5 11.5 -69.5 18.5l0 15.5q36 7 68 18.5q32 11.5 55 32q23.5 21 36.5 55.5q13 34.5 13 87.5l0 116.5q0 35.5 10.5 57.5q10.5 22 30 33.5q18.5 10.5 43 14q24.5 3.5 45 4.5l0 40" />
</g>
<g id="PathID_205" transform="matrix(0.0352941, 0, 0, 0.0352941, 192, 420)">
<path style="fill:#FFFF99;fill-opacity:1" d="M224 212l-63.5 0l0 -973.5l63.5 0l0 973.5" />
</g>
<g id="PathID_206" transform="matrix(0.0352941, 0, 0, 0.0352941, 240, 420)">
<path style="fill:#FFFF99;fill-opacity:1" d="M404.5 -268.5q-34.5 2.5 -64 9.5q-30 6.5 -49.5 20.5q-20.5 14.5 -31 38.5q-10.5 23.5 -10.5 59.5q0 27.5 4 62.5q3.5 34.5 3.5 64.5q0 56.5 -14.5 91q-15 34 -44 54.5q-28 19.5 -70 27q-42.5 7.5 -95 7.5l0 -40q20.5 -1 45.5 -4.5q24.5 -3.5 42.5 -14q19.5 -11.5 30 -33.5q10.5 -22 10.5 -57.5l0 -116.5q0 -53 13 -87.5q13 -34.5 36.5 -55.5q23 -20.5 55 -32q32 -11.5 68 -18.5l0 -15.5q-38 -7 -69.5 -18.5q-31 -12 -53.5 -32q-24.5 -21.5 -37 -56q-12.5 -34.5 -12.5 -87l0 -117q0 -37 -11 -58.5q-11.5 -22 -29.5 -32q-15.5 -8.5 -41.5 -12.5q-26.5 -4.5 -46.5 -5.5l0 -41q51.5 0 94 8q42.5 7.5 71 28q29 21 44 56.5q14.5 35.5 14.5 87.5q0 30 -3.5 64.5q-4 34.5 -4 63q0 34 10 58q9.5 23.5 31 39q18.5 13 49 20.5q30 7.5 65 10.5l0 64.5" />
</g>
<g id="PathID_207" transform="matrix(0.0352941, 0, 0, 0.0352941, 288, 420)">
<path style="fill:#FFFF99;fill-opacity:1" d="M593.5 -357q-7 18.5 -23 46.5q-16.5 27.5 -36.5 47.5q-24.5 24.5 -51.5 39q-27.5 14 -59.5 14q-36 0 -66 -10.5q-30 -11 -55 -23.5q-25.5 -13 -50 -23.5q-25 -10.5 -50 -10.5q-33.5 0 -55 23q-22 23 -43 65l-39 -15.5q6.5 -19 23.5 -46q16.5 -27 36.5 -48q19.5 -21 50 -37q30 -16 60.5 -16q37 0 67 11q29.5 10.5 55 23q27 13.5 49.5 24q22 10 49.5 10q35 0 57.5 -24.5q22 -24.5 40.5 -63.5l39 15.5" />
</g>
<g id="PathID_208" transform="matrix(0.0352941, 0, 0, 0.0352941, 336, 420)">
<path style="fill:#FFFF99;fill-opacity:1" d="M418.5 -575l-24 16l-139.5 -136.5l-137.5 136.5l-24 -16l118.5 -173.5q8.5 -12.5 16.5 -17.5q7.5 -5 28.5 -5q20 0 27.5 5.5q7.5 5 14.5 15l119.5 175.5" />
</g>
<g id="PathID_209" transform="matrix(0.0352941, 0, 0, 0.0352941, 384, 420)">
<path style="fill:#FFFF99;fill-opacity:1" d="M447 -733.5q-5 19 -15 39q-10 20 -27.5 39.5q-18 19.5 -37.5 31.5q-20 11.5 -47.5 11.5q-28.5 0 -50 -8q-21.5 -8.5 -37 -17.5q-17.5 -10 -33 -18q-16 -8 -35 -8q-15.5 0 -23 4q-8 4 -16.5 13.5q-8 9 -16 24q-8 14.5 -15 26.5l-29 -12.5q5 -16 17 -38.5q12 -22.5 26 -39.5q15 -18 36.5 -30.5q21.5 -13 45 -13q28 0 48.5 8.5q20 8 37 17.5q19 10.5 32 18q13 7.5 32 7.5q20 0 32.5 -4.5q12 -5 19 -13.5q8 -9.5 13.5 -20.5q5 -11 12.5 -28.5l30.5 11.5" />
</g>
<g id="PathID_210" transform="matrix(0.0352941, 0, 0, 0.0352941, 432, 420)">
<path style="fill:#FFFF99;fill-opacity:1" d="M607.5 -248.5l-556.5 0l0 -62.5l556.5 0l0 62.5" />
</g>
<g id="PathID_211" transform="matrix(0.0352941, 0, 0, 0.0352941, 480, 420)">
<path style="fill:#FFFF99;fill-opacity:1" d="M826.5 -248.5l-775.5 0l0 -62.5l775.5 0l0 62.5" />
</g>
<g id="PathID_212" transform="matrix(0.0352941, 0, 0, 0.0352941, 0, 468)">
<path style="fill:#FFFF99;fill-opacity:1" d="M186 -733q-23.5 13.5 -38 23q-14.5 10 -29.5 25.5q-14 14.5 -21.5 31.5q-7.5 16.5 -10.5 42.5l24 0q31 0 49 15.5q17.5 15 17.5 44.5q0 21 -15.5 39.5q-16 18 -43.5 18q-43 0 -61.5 -28q-18.5 -28.5 -18.5 -74.5q0 -32 14 -59q14 -26.5 34 -47.5q20.5 -21.5 43.5 -36.5q23 -15 38.5 -24.5l18 30" />
</g>
<g id="PathID_213" transform="matrix(0.0352941, 0, 0, 0.0352941, 48, 468)">
<path style="fill:#FFFF99;fill-opacity:1" d="M194 -663q0 33 -14 60.5q-14.5 27 -34.5 47q-20 20.5 -44 37q-24 16 -38.5 23.5l-17 -29.5q20.5 -12 39.5 -24.5q18.5 -13 28.5 -24.5q13.5 -15 21.5 -31q8 -16.5 10 -43l-24 0q-31.5 0 -49 -16q-17.5 -16 -17.5 -44.5q0 -20.5 16 -38.5q16 -18.5 43.5 -18.5q42.5 0 61 28.5q18.5 28 18.5 73.5l0 0" />
</g>
<g id="PathID_214" transform="matrix(0.0352941, 0, 0, 0.0352941, 96, 468)">
<path style="fill:#FFFF99;fill-opacity:1" d="M194 -17q0 33 -14 60.5q-14.5 27 -34.5 47q-20 20.5 -44 37q-24 16 -38.5 23.5l-17 -29.5q20.5 -12 39.5 -24.5q18.5 -13 28.5 -24.5q13.5 -15 21.5 -31q8 -16.5 10 -43l-24 0q-31.5 0 -49 -16q-17.5 -16 -17.5 -44.5q0 -20.5 16 -38.5q16 -18.5 43.5 -18.5q42.5 0 61 28.5q18.5 28 18.5 73.5l0 0" />
</g>
<g id="PathID_215" transform="matrix(0.0352941, 0, 0, 0.0352941, 144, 468)">
<path style="fill:#FFFF99;fill-opacity:1" d="M187.5 -733q-23.5 13.5 -38 23q-14.5 10 -29.5 25.5q-14 15 -21.5 31.5q-7.5 16.5 -10.5 42.5l24 0q31 0 49 15.5q17.5 15 17.5 44.5q0 21 -15.5 39.5q-16 18 -43.5 18q-43 0 -61.5 -28q-18.5 -28.5 -18.5 -74.5q0 -32 14 -59q14 -26.5 34 -47.5q20.5 -21.5 43.5 -36.5q23 -15 38.5 -24.5l18 30M372.5 -733q-23.5 13.5 -38 23q-14.5 10 -29.5 25.5q-14.5 15.5 -21.5 32q-7.5 16 -10.5 42l24 0q31 0 49 15.5q17.5 15 17.5 44.5q0 21 -15.5 39.5q-16 18 -43.5 18q-43 0 -61.5 -28q-18.5 -28.5 -18.5 -74.5q0 -32 14 -59q14 -26.5 34 -47.5q20.5 -21.5 43.5 -36.5q23 -15 38.5 -24.5l18 30" />
</g>
<g id="PathID_216" transform="matrix(0.0352941, 0, 0, 0.0352941, 192, 468)">
<path style="fill:#FFFF99;fill-opacity:1" d="M195.5 -663q0 33 -14.5 60.5q-14.5 27 -34 47q-20 20.5 -44 37q-24 16 -38.5 23.5l-17 -29.5q20.5 -12 39.5 -24.5q18.5 -13 28.5 -24.5q13.5 -15 21.5 -31q8 -16.5 10 -43l-24 0q-31.5 0 -49 -16q-17.5 -16 -17.5 -44.5q0 -20.5 16 -38.5q16 -18.5 43.5 -18.5q42.5 0 61 28.5q18.5 28 18.5 73.5l0 0M380.5 -663q0 33 -14.5 60.5q-14.5 27 -34 47q-20 20.5 -44 37q-24 16 -38.5 23.5l-17 -29.5q20.5 -12 39.5 -24.5q18.5 -13 28.5 -24.5q13.5 -15 21.5 -31q8 -16.5 10 -43l-24 0q-31.5 0 -49 -16q-17.5 -16 -17.5 -44.5q0 -20.5 16 -38.5q16 -18.5 43.5 -18.5q42.5 0 61 28.5q18.5 28 18.5 73.5l0 0" />
</g>
<g id="PathID_217" transform="matrix(0.0352941, 0, 0, 0.0352941, 240, 468)">
<path style="fill:#FFFF99;fill-opacity:1" d="M195.5 -17q0 33 -14.5 60.5q-14.5 27 -34 47q-20 20.5 -44 37q-24 16 -38.5 23.5l-17 -29.5q20.5 -12 39.5 -24.5q18.5 -13 28.5 -24.5q13.5 -15 21.5 -31q8 -16.5 10 -43l-24 0q-31.5 0 -49 -16q-17.5 -16 -17.5 -44.5q0 -20.5 16 -38.5q16 -18.5 43.5 -18.5q42.5 0 61 28.5q18.5 28 18.5 73.5l0 0M380.5 -17q0 33 -14.5 60.5q-14.5 27 -34 47q-20 20.5 -44 37q-24 16 -38.5 23.5l-17 -29.5q20.5 -12 39.5 -24.5q18.5 -13 28.5 -24.5q13.5 -15 21.5 -31q8 -16.5 10 -43l-24 0q-31.5 0 -49 -16q-17.5 -16 -17.5 -44.5q0 -20.5 16 -38.5q16 -18.5 43.5 -18.5q42.5 0 61 28.5q18.5 28 18.5 73.5l0 0" />
</g>
<g id="PathID_218" transform="matrix(0.0352941, 0, 0, 0.0352941, 288, 468)">
<path style="fill:#FFFF99;fill-opacity:1" d="M432 -534q0 17 -10.5 26.5q-10.5 9 -27 9q-12.5 0 -54 -9.5q-41.5 -10 -86.5 -15q7.5 123.5 16 242.5q8 118.5 8 133.5q0 16.5 -8 27q-8.5 10.5 -27.5 10.5q-17 0 -26 -10.5q-9.5 -10.5 -9.5 -27q0 -11 5.5 -95q5.5 -84.5 16.5 -281q-49 5 -88 15q-39.5 9.5 -52.5 9.5q-16.5 0 -27 -9q-10.5 -9 -10.5 -26.5q0 -18.5 10.5 -27q10.5 -8.5 27 -8.5q15 0 54.5 11q39 11 86 15.5q-6 -53.5 -14.5 -94q-8.5 -40.5 -8.5 -53q0 -16.5 9.5 -27q9.5 -10.5 27 -10.5q18.5 0 27.5 10.5q9 10.5 9 27q0 13.5 -9.5 55.5q-10 42 -15.5 91.5q54 -6 91 -16q36.5 -10.5 49.5 -10.5q16.5 0 27 8.5q10.5 8 10.5 27l0 0" />
</g>
<g id="PathID_219" transform="matrix(0.0352941, 0, 0, 0.0352941, 336, 468)">
<path style="fill:#FFFF99;fill-opacity:1" d="M432 -298q0 18.5 -10.5 27q-10.5 8.5 -27 8.5q-12.5 0 -54 -10.5q-41.5 -11 -86.5 -16q5 49.5 15 91.5q10 42 10 55.5q0 16.5 -8.5 27q-9 10.5 -28 10.5q-17 0 -26.5 -10.5q-10 -10.5 -10 -27q0 -15.5 8.5 -52q8.5 -36.5 14.5 -95q-55.5 7 -91.5 17q-36 9.5 -49 9.5q-16.5 0 -27 -8q-10.5 -8.5 -10.5 -27.5q0 -17 10.5 -26q10.5 -9.5 27 -9.5q15 0 50 9.5q34.5 9 90.5 15q-2 -27 -7 -50q-5 -23 -7 -49l0 -16q1.5 -25.5 7 -49q5.5 -23.5 7 -50q-49 5 -88 15q-39.5 9.5 -52.5 9.5q-16.5 0 -27 -9q-10.5 -9 -10.5 -26.5q0 -18.5 10.5 -27q10.5 -8.5 27 -8.5q13 0 48.5 10q35 9.5 92 16.5q-6 -53.5 -14.5 -94q-8.5 -40.5 -8.5 -53q0 -16.5 9.5 -27q9.5 -10.5 27 -10.5q18.5 0 27.5 10.5q9 10.5 9 27q0 13.5 -9.5 55.5q-10 42 -15.5 91.5q54 -6 91 -16q36.5 -10.5 49.5 -10.5q16.5 0 27 8.5q10.5 8 10.5 27q0 17 -10.5 26.5q-10.5 9 -27 9q-12.5 0 -54 -9.5q-41.5 -10 -86.5 -15q1.5 27 7 50.5q5.5 23 7 48.5l0 16q-2 26 -7 49q-5 23 -7 50q54 -6 91 -15q36.5 -9.5 49.5 -9.5q16.5 0 27 9q10.5 9 10.5 26.5l0 0" />
</g>
<g id="PathID_220" transform="matrix(0.0352941, 0, 0, 0.0352941, 384, 468)">
<path style="fill:#FFFF99;fill-opacity:1" d="M333 -299.5q0 54.5 -38.5 93.5q-39 38.5 -93.5 38.5q-54.5 0 -93 -38.5q-39 -39 -39 -93.5q0 -54.5 39 -93q38.5 -39 93 -39q54.5 0 93.5 39q38.5 38.5 38.5 93l0 0" />
</g>
<g id="PathID_221" transform="matrix(0.0352941, 0, 0, 0.0352941, 432, 468)">
<path style="fill:#FFFF99;fill-opacity:1" d="M756 -54.5q0 26.5 -19.5 45.5q-19.5 19 -46 19q-26.5 0 -46 -19q-19.5 -19 -19.5 -45.5q0 -26.5 19.5 -46q19 -19.5 46 -19.5q27 0 46.5 19.5q19 19.5 19 46l0 0M480.5 -54.5q0 27 -19.5 46q-20 18.5 -46 18.5q-26.5 0 -46 -19q-19.5 -19 -19.5 -45.5q0 -26.5 19.5 -46q19 -19.5 46 -19.5q26.5 0 46 19.5q19.5 19.5 19.5 46l0 0M205 -54.5q0 27 -19.5 46q-20 18.5 -46 18.5q-26.5 0 -46 -19q-19.5 -19 -19.5 -45.5q0 -26.5 19.5 -46q19 -19.5 46 -19.5q26.5 0 46 19.5q19.5 19.5 19.5 46l0 0" />
</g>
<g id="PathID_222" transform="matrix(0.0352941, 0, 0, 0.0352941, 480, 468)">
<path style="fill:#FFFF99;fill-opacity:1" d="M394 -541.5q0 88 -47.5 136.5q-47.5 48.5 -122.5 48.5q-75 0 -122 -48.5q-47.5 -48.5 -47.5 -136.5q0 -83 46.5 -134q46 -51 123.5 -51q76.5 0 123 51q46.5 51 46.5 134l0 0M309.5 -541.5q0 -65 -21.5 -107q-21.5 -41.5 -63.5 -41.5q-43 0 -64 41.5q-21.5 42 -21.5 107q0 66.5 21.5 107.5q21.5 41 63.5 41q42 0 64 -41q21.5 -41 21.5 -107.5l0 0M782.5 -169q0 88 -47.5 136.5q-47.5 48.5 -122.5 48.5q-75 0 -122 -48.5q-47.5 -48.5 -47.5 -136.5q0 -83 46.5 -134q46 -51 123.5 -51q76.5 0 123 51q46.5 51 46.5 134l0 0M698 -169q0 -65 -21.5 -107q-21.5 -41.5 -63.5 -41.5q-43 0 -64 41.5q-21.5 42 -21.5 107q0 66.5 21.5 107.5q21.5 41 63.5 41q42 0 64 -41q21.5 -41 21.5 -107.5l0 0M749.5 -712l-590 712l-68.5 0l588.5 -712l70 0M1180 -169q0 88 -47.5 136.5q-47.5 48.5 -122.5 48.5q-75 0 -122 -48.5q-47.5 -48.5 -47.5 -136.5q0 -83 46.5 -134q46 -51 123.5 -51q76.5 0 123 51q46.5 51 46.5 134l0 0M1095.5 -169q0 -65 -21.5 -107q-21.5 -41.5 -63.5 -41.5q-43 0 -64 41.5q-21.5 42 -21.5 107q0 66.5 21.5 107.5q21.5 41 63.5 41q42 0 64 -41q21.5 -41 21.5 -107.5l0 0" />
</g>
<g id="PathID_223" transform="matrix(0.0352941, 0, 0, 0.0352941, 0, 516)">
<path style="fill:#FFFF99;fill-opacity:1" d="M320.5 -80l-24.5 20l-187.5 -166q-5 -4.5 -13 -13.5q-8 -9.5 -8 -24.5q0 -15 8 -24q7.5 -9.5 14.5 -16l186 -164.5l24.5 20.5l-134.5 183.5l134.5 184.5" />
</g>
<g id="PathID_224" transform="matrix(0.0352941, 0, 0, 0.0352941, 48, 516)">
<path style="fill:#FFFF99;fill-opacity:1" d="M337.5 -264q0 16 -8 25q-8.5 9 -13 13l-187.5 166l-24.5 -20l134.5 -184.5l-134.5 -183.5l24.5 -20.5l186 164.5q5.5 4.5 14 16q8.5 11.5 8.5 24l0 0" />
</g>
<g id="PathID_225" transform="matrix(0.0352941, 0, 0, 0.0352941, 96, 516)">
<path style="fill:#FFFF99;fill-opacity:1" d="M644 -179q-43 105.5 -111.5 151q-68.5 45 -166.5 45q-63 0 -118 -24.5q-54.5 -24.5 -99 -72q-31 -32.5 -55 -83q-23.5 -50 -30.5 -102.5l-63.5 0l18 -48l40.5 0q-1 -13 -1 -17q0 -4.5 0 -18q0 -8 1 -25q0.5 -17.5 1.5 -27l-60 0l18 -48l48.5 0q9.5 -46.5 29.5 -90.5q20 -44.5 53.5 -82.5q44.5 -50.5 103 -77q59 -27 129 -27q52.5 0 92.5 13q40 13 78.5 36.5l20.5 -34l40 0l4.5 253l-41 0q-8 -37 -24 -80q-16 -43.5 -37.5 -73.5q-24 -34 -54.5 -53q-30.5 -19.5 -73 -19.5q-48 0 -86.5 21.5q-38.5 21.5 -68 64q-21.5 31.5 -33.5 69q-11.5 37.5 -17 80l196.5 0l-18 48l-183 0q-0.5 7 -0.5 23q-0.5 16 -0.5 22q0 16 0.5 24.5q0 8 0.5 17.5l150 0l-18 48l-127 0q7 41 20 75q13 33.5 32.5 60.5q31.5 42.5 74.5 66q43.5 24 93 24q40.5 0 72 -12.5q31.5 -13 56.5 -34q25 -22 44 -50q19 -28 31 -61l37.5 18" />
</g>
<g id="PathID_226" transform="matrix(0.0352941, 0, 0, 0.0352941, 144, 516)">
<path style="fill:#FFFF99;fill-opacity:1" d="M928 -366.5l-172.5 0l0 -26q8 0 22.5 -1q14.5 -1.5 19.5 -4q8 -5.5 11 -9q3 -3.5 3 -11l0 -225.5l-7.5 0l-122 265.5l-15.5 0l-118.5 -270.5l-7.5 0l0 182q0 26.5 3.5 40.5q3 13.5 11 20.5q6.5 4 22 8.5q15.5 4 27 4l0 26l-158 0l0 -25q8 -1.5 24 -3.5q15.5 -2.5 23.5 -8q8.5 -6.5 11.5 -18q3 -11.5 3 -43l0 -173.5q0 -12 -3.5 -20q-4 -8 -11 -14q-7.5 -6 -18.5 -8.5q-11.5 -3 -26 -4l0 -25.5l139.5 0l105 236l88 -193.5q5.5 -12.5 8.5 -23.5q2.5 -11.5 4 -19l134 0l0 25.5q-8.5 0.5 -21.5 2.5q-13.5 2 -19 4q-7.5 1.5 -9.5 7q-2 5.5 -2 11l0 242q0 7 2 11.5q2 4 9.5 7.5q5 1.5 17.5 4q12 2 23 2l0 26M388 -610.5l-24 0q-5 -16.5 -20 -41q-15.5 -25 -30 -28q-11 -1 -21.5 -1.5q-10.5 -0.5 -17.5 -0.5l-24.5 0l0 262q0 7 2.5 12q2 4.5 10 8q5 1.5 18.5 4.5q13.5 2.5 25 2.5l0 26l-176.5 0l0 -26q10 0 24.5 -1.5q14.5 -2 19 -3.5q7.5 -2.5 10 -8q2.5 -5.5 2.5 -11l0 -265l-24.5 0q-7.5 0 -20 1q-12.5 0.5 -19 1q-15.5 2.5 -30 28q-15 25 -20 41l-24 0l0 -99l339.5 0l0 99" />
</g>
</svg>
