<?xml version="1.0" encoding="utf-8"?>
<svg version="1.1" id="Layer_1"
xmlns="http://www.w3.org/2000/svg"
xmlns:xlink="http://www.w3.org/1999/xlink"
xmlns:author="http://www.sothink.com"
width="548px" height="596px"
xml:space="preserve">
<g id="PathID_1" transform="matrix(0.0352941, 0, 0, 0.0352941, 48, 37.8)">
<path style="fill:#FFFF99;fill-opacity:1" d="M206.5 -191l-35.5 0q-38.5 -251.5 -38.5 -349.5l0 -205l113 0l0 204.5q0 95.5 -39 350l0 0M192 -140.5q31 0 53 22q22 22 22 53q0 31 -22 53.5q-22 22 -53 22q-31 0 -53 -22q-22 -22.5 -22 -53.5q0 -31 22 -53q22 -22 53 -22l0 0" />
</g>
<g id="PathID_2" transform="matrix(0.0352941, 0, 0, 0.0352941, 96, 37.8)">
<path style="fill:#FFFF99;fill-opacity:1" d="M114.5 -543l-66.5 0l-12 -190.5l92 0l-13.5 190.5M279.5 -543l-66.5 0l-12 -190.5l92 0l-13.5 190.5" />
</g>
<g id="PathID_3" transform="matrix(0.0352941, 0, 0, 0.0352941, 144, 37.8)">
<path style="fill:#FFFF99;fill-opacity:1" d="M439.5 -473.5l-49.5 196.5l80.5 0l0 64l-97 0l-62 223l-63.5 0l62 -223l-148.5 0l-62 223l-65 0l61.5 -223l-77.5 0l0 -64l94 0l49.5 -196.5l-86 0l0 -64l102.5 0l51 -206l65.5 0l-51.5 206l148.5 0l51.5 -206l63.5 0l-51.5 206l87.5 0l0 64l-103.5 0M227.5 -473.5l-49.5 196.5l148.5 0l49.5 -196.5l-148.5 0" />
</g>
<g id="PathID_4" transform="matrix(0.0352941, 0, 0, 0.0352941, 192, 37.8)">
<path style="fill:#FFFF99;fill-opacity:1" d="M229 12.5q-34.5 -2 -87 -17.5q-52.5 -15.5 -72 -28.5l36 -92q26 19 69 33.5q42.5 14.5 76 14.5q58.5 0 94 -32q35.5 -32 35.5 -81.5q0 -31 -10 -55q-10.5 -24 -28 -38.5q-18 -15 -81 -44.5l-59 -27.5q-75 -35 -104.5 -83q-30 -48 -30 -115.5q0 -69.5 44 -121q43.5 -51.5 117 -65l0 -80l69.5 0l0 76.5q107.5 4.5 145.5 39l-29.5 87q-20 -14.5 -61 -28q-41 -13.5 -76 -13.5q-51 0 -80 29q-29.5 29 -29.5 74.5q0 28 10.5 51q10.5 23 30 39q19.5 16 76 43l46 21.5q78 36.5 114 89.5q36 52.5 36 135q0 68 -48 119.5q-48.5 51 -134 65.5l0 115.5l-69.5 0l0 -110.5" />
</g>
<g id="PathID_5" transform="matrix(0.0352941, 0, 0, 0.0352941, 240, 37.8)">
<path style="fill:#FFFF99;fill-opacity:1" d="M109 10l-63.5 0l441.5 -755.5l63 0l-441 755.5M30.5 -581q0 -73.5 40.5 -119q40.5 -45.5 103 -45.5q61.5 0 98.5 45q36.5 45 36.5 129q0 78 -39 124q-39 45.5 -100.5 45.5q-139 0 -139 -179l0 0M93.5 -576q0 58.5 20 91q19.5 32 51.5 32q81 0 81 -122.5q0 -119 -73.5 -119q-36.5 0 -57.5 32q-21.5 32 -21.5 86.5l0 0M300.5 -169q0 -73.5 40.5 -119q40.5 -45.5 103 -45.5q61.5 0 98.5 45q36.5 45 36.5 129q0 78 -39 124q-39 45.5 -100.5 45.5q-139 0 -139 -179l0 0M363.5 -164q0 58.5 20 91q19.5 32 51.5 32q81 0 81 -122.5q0 -119 -73.5 -119q-36.5 0 -57.5 32q-21.5 32 -21.5 86.5l0 0" />
</g>
<g id="PathID_6" transform="matrix(0.0352941, 0, 0, 0.0352941, 288, 37.8)">
<path style="fill:#FFFF99;fill-opacity:1" d="M464.5 -25.5q-72.5 35.5 -175 35.5q-104.5 0 -161.5 -61.5q-57 -62 -57 -175q0 -58 17.5 -100.5q17 -42.5 63 -88q-70.5 -70 -70.5 -145.5q0 -76.5 58 -130.5q57.5 -54.5 154.5 -54.5q103 0 159 45.5l-41.5 77q-57 -47.5 -102 -47.5q-133 0 -133 120q0 65 58 110l186 0l0 -91.5l95 -36.5l0 129.5l124.5 0l0 80l-124.5 0l0 165q0 69 18.5 94q18.5 25 64 25q27 0 63.5 -18.5l13.5 88.5q-52.5 15 -120 15q-46.5 0 -90 -35.5l0 0M420 -157l0 -202l-201.5 0q-47.5 61 -47.5 128q0 156 152.5 156q68 0 102 -24.5q-5.5 -23 -5.5 -57.5l0 0" />
</g>
<g id="PathID_7" transform="matrix(0.0352941, 0, 0, 0.0352941, 336, 37.8)">
<path style="fill:#FFFF99;fill-opacity:1" d="M114.5 -543l-66.5 0l-12 -190.5l92 0l-13.5 190.5" />
</g>
<g id="PathID_8" transform="matrix(0.0352941, 0, 0, 0.0352941, 384, 37.8)">
<path style="fill:#FFFF99;fill-opacity:1" d="M309 -737.5l0 41.5q-99 143 -99 417.5q0 326 99 440l0 52.5q-101 -70.5 -156.5 -202q-56 -132 -56 -291.5q0 -136 63.5 -274.5q63.5 -139 149 -183.5l0 0" />
</g>
<g id="PathID_9" transform="matrix(0.0352941, 0, 0, 0.0352941, 432, 37.8)">
<path style="fill:#FFFF99;fill-opacity:1" d="M96.5 214l0 -52.5q99 -114 99 -440q0 -274.5 -99 -417.5l0 -41.5q85.5 44.5 149 183.5q63.5 138.5 63.5 274.5q0 159.5 -55.5 291.5q-56 131.5 -157 202l0 0" />
</g>
<g id="PathID_10" transform="matrix(0.0352941, 0, 0, 0.0352941, 480, 37.8)">
<path style="fill:#FFFF99;fill-opacity:1" d="M298.5 -563.5l-86.5 1.5l79 52.5l23.5 31l-61 52l-27 -35l-41 -79.5l-45.5 81l-21.5 32l-65.5 -50.5l25 -34.5l79 -41.5l-88 -13.5l-45 -16l36 -75l48 18.5l62.5 47.5l-31.5 -102.5l0 -39.5l88 0l0 38l-30 105.5l79 -53.5l37 -13.5l28.5 80.5l-43 14.5" />
</g>
<g id="PathID_11" transform="matrix(0.0352941, 0, 0, 0.0352941, 0, 84)">
<path style="fill:#FFFF99;fill-opacity:1" d="M305.5 -353l174.5 0l0 70.5l-174.5 0l0 172.5l-70.5 0l0 -172.5l-174 0l0 -70.5l174 0l0 -171.5l70.5 0l0 171.5" />
</g>
<g id="PathID_12" transform="matrix(0.0352941, 0, 0, 0.0352941, 48, 84)">
<path style="fill:#FFFF99;fill-opacity:1" d="M112 181.5l-25.5 -36q86 -70.5 86 -120q0 -22 -15 -44q-43 -20.5 -43 -59q0 -26.5 20.5 -43.5q20.5 -17.5 51.5 -17.5q27.5 0 49.5 24q21.5 24 21.5 56q0 66.5 -27.5 120q-28 53 -118 120l0 0" />
</g>
<g id="PathID_13" transform="matrix(0.0352941, 0, 0, 0.0352941, 96, 84)">
<path style="fill:#FFFF99;fill-opacity:1" d="M79.5 -253l0 -87.5l214 0l0 87.5l-214 0" />
</g>
<g id="PathID_14" transform="matrix(0.0352941, 0, 0, 0.0352941, 144, 84)">
<path style="fill:#FFFF99;fill-opacity:1" d="M177 -140.5q31 0 53 22q22 22 22 53q0 31 -22 53.5q-22 22 -53 22q-31 0 -53 -22q-22 -22.5 -22 -53.5q0 -31 22 -53q22 -22 53 -22l0 0" />
</g>
<g id="PathID_15" transform="matrix(0.0352941, 0, 0, 0.0352941, 192, 84)">
<path style="fill:#FFFF99;fill-opacity:1" d="M175 0l-80.5 0l265.5 -735.5l79.5 0l-264.5 735.5" />
</g>
<g id="PathID_16" transform="matrix(0.0352941, 0, 0, 0.0352941, 240, 84)">
<path style="fill:#FFFF99;fill-opacity:1" d="M32 -388.5q0 -158 64 -257.5q64 -99.5 180 -99.5q115 0 173 83q57.5 83 57.5 290q0 178 -60.5 280.5q-60.5 102 -177 102q-116.5 0 -176.5 -82.5q-60.5 -82.5 -60.5 -316l0 0M132 -379.5q0 304.5 130 304.5q74.5 0 109.5 -67.5q35 -67.5 35 -236.5q0 -116.5 -13.5 -171q-13.5 -54.5 -43.5 -82.5q-30 -28 -76 -28q-141.5 0 -141.5 281l0 0" />
</g>
<g id="PathID_17" transform="matrix(0.0352941, 0, 0, 0.0352941, 288, 84)">
<path style="fill:#FFFF99;fill-opacity:1" d="M249 0l0 -561.5l-149 93l0 -93.5q56.5 -28.5 120.5 -78.5q63.5 -50 98.5 -95l30 0l0 735.5l-100 0" />
</g>
<g id="PathID_18" transform="matrix(0.0352941, 0, 0, 0.0352941, 336, 84)">
<path style="fill:#FFFF99;fill-opacity:1" d="M34.5 0l0 -20l229.5 -351.5q72 -110.5 72 -187.5q0 -101.5 -114.5 -101.5q-40.5 0 -76 21.5q-35.5 21 -51.5 53.5l-64.5 -53q17 -49 67 -78q49.5 -29 120 -29q105.5 0 165 49q59.5 48.5 59.5 137.5q0 82.5 -79 208l-164.5 261l287 0l0 90l-450 0" />
</g>
<g id="PathID_19" transform="matrix(0.0352941, 0, 0, 0.0352941, 384, 84)">
<path style="fill:#FFFF99;fill-opacity:1" d="M54.5 -52l48 -77q49 54 124 54q139 0 139 -136q0 -62 -40.5 -100.5q-40.5 -39 -107.5 -39l-8 0l0 -81l4.5 0q127 0 127 -112q0 -117 -119.5 -117q-65 0 -103.5 43.5l-44.5 -68q46.5 -60.5 155.5 -60.5q96 0 156.5 51.5q60.5 51 60.5 131q0 61 -33.5 108q-34 47 -79.5 63q63 20.5 100.5 70q37 49 37 119q0 102 -64.5 157.5q-64.5 55.5 -181 55.5q-49 0 -96 -18q-47 -18.5 -74.5 -44l0 0" />
</g>
<g id="PathID_20" transform="matrix(0.0352941, 0, 0, 0.0352941, 432, 84)">
<path style="fill:#FFFF99;fill-opacity:1" d="M441 -199.5l0 199.5l-95 0l0 -199.5l-333.5 0l0 -57l393.5 -479l35 0l0 459l74 0l0 77l-74 0M346 -536l-215 259.5l215 0l0 -259.5" />
</g>
<g id="PathID_21" transform="matrix(0.0352941, 0, 0, 0.0352941, 480, 84)">
<path style="fill:#FFFF99;fill-opacity:1" d="M116 -357.5l-34 -23.5l0 -354.5l364.5 0l0 85l-269.5 0l0 178q37 -27.5 94 -27.5q102 0 156 61q53.5 61 53.5 173.5q0 275.5 -245.5 275.5q-102.5 0 -170 -57l38.5 -83.5q68 55.5 131 55.5q141 0 141 -176q0 -164 -139 -164q-67 0 -120.5 57.5l0 0" />
</g>
<g id="PathID_22" transform="matrix(0.0352941, 0, 0, 0.0352941, 0, 132)">
<path style="fill:#FFFF99;fill-opacity:1" d="M336 -745.5l48.5 53.5q-44 17.5 -127 118.5q-83.5 100.5 -92.5 155q41.5 -40 115.5 -40q97 0 155.5 62q58.5 62 58.5 170.5q0 107.5 -60 173q-60.5 65.5 -151.5 65.5q-241 0 -241 -319.5q0 -133 94.5 -272q94 -139.5 199.5 -166.5l0 0M147 -229q0 156.5 128.5 156.5q54 0 85.5 -40.5q31 -41 31 -108q0 -69.5 -33 -111q-33 -41.5 -85 -41.5q-127 0 -127 144.5l0 0" />
</g>
<g id="PathID_23" transform="matrix(0.0352941, 0, 0, 0.0352941, 48, 132)">
<path style="fill:#FFFF99;fill-opacity:1" d="M214 0l-111 0q37 -117.5 124.5 -310.5q87.5 -193.5 160 -330l-345.5 0l0 -95l475 0l0 39l-64.5 127q-32.5 64.5 -68 141.5q-35.5 77 -69.5 157q-34 80 -59.5 148.5q-25.5 68.5 -41.5 122.5l0 0" />
</g>
<g id="PathID_24" transform="matrix(0.0352941, 0, 0, 0.0352941, 96, 132)">
<path style="fill:#FFFF99;fill-opacity:1" d="M176.5 -407.5q-46.5 -25 -76 -69.5q-29.5 -44.5 -29.5 -92q0 -81.5 55.5 -129q55 -47.5 142.5 -47.5q94.5 0 146.5 47.5q52 47.5 52 129.5q0 48 -31.5 98q-31.5 49.5 -73 73q132 74 132 194.5q0 101.5 -61 157.5q-61 55.5 -167.5 55.5q-222 0 -222 -213q0 -61.5 38 -121q38 -59.5 94 -83.5l0 0M299 -438.5q68 -64 68 -132.5q0 -41 -27 -65q-27.5 -24.5 -71 -24.5q-98 0 -98 90.5q0 67 128 131.5l0 0M254.5 -364q-110 59.5 -110 161q0 54.5 34 91.5q34 36.5 88 36.5q56 0 92.5 -36q36 -36 36 -92q0 -40.5 -25 -76q-25 -36 -115.5 -85l0 0" />
</g>
<g id="PathID_25" transform="matrix(0.0352941, 0, 0, 0.0352941, 144, 132)">
<path style="fill:#FFFF99;fill-opacity:1" d="M195.5 12.5l-48.5 -53.5q43.5 -17.5 127.5 -118q83.5 -100.5 92 -155q-41 39.5 -115.5 39.5q-97 0 -155.5 -62q-58.5 -62 -58.5 -170.5q0 -107.5 60.5 -173q60 -65.5 151 -65.5q241 0 241 319.5q0 133 -94 272.5q-94.5 139 -200 166l0 0M384.5 -504q0 -156.5 -128.5 -156.5q-54 0 -85 41q-31.5 40.5 -31.5 107.5q0 69.5 33 111q33 41.5 85 41.5q127 0 127 -144.5l0 0" />
</g>
<g id="PathID_26" transform="matrix(0.0352941, 0, 0, 0.0352941, 192, 132)">
<path style="fill:#FFFF99;fill-opacity:1" d="M177 -545.5q31 0 53 22q22 22 22 53q0 31 -22 53.5q-22 22 -53 22q-31 0 -53 -22q-22 -22.5 -22 -53.5q0 -31 22 -53q22 -22 53 -22l0 0M177 -140.5q31 0 53 22q22 22 22 53q0 31 -22 53.5q-22 22 -53 22q-31 0 -53 -22q-22 -22.5 -22 -53.5q0 -31 22 -53q22 -22 53 -22l0 0" />
</g>
<g id="PathID_27" transform="matrix(0.0352941, 0, 0, 0.0352941, 240, 132)">
<path style="fill:#FFFF99;fill-opacity:1" d="M177 -545.5q31 0 53 22q22 22 22 53q0 31 -22 53.5q-22 22 -53 22q-31 0 -53 -22q-22 -22.5 -22 -53.5q0 -31 22 -53q22 -22 53 -22l0 0M112 181.5l-25.5 -36q86 -70.5 86 -120q0 -22 -15 -44q-43 -20.5 -43 -59q0 -26.5 20.5 -43.5q20.5 -17.5 51.5 -17.5q27.5 0 49.5 24q21.5 24 21.5 56q0 66.5 -27.5 120q-28 53 -118 120l0 0" />
</g>
<g id="PathID_28" transform="matrix(0.0352941, 0, 0, 0.0352941, 288, 132)">
<path style="fill:#FFFF99;fill-opacity:1" d="M444.5 -109l-369.5 -179l0 -61.5l369.5 -177l0 80.5l-285.5 127.5l285.5 129l0 80.5" />
</g>
<g id="PathID_29" transform="matrix(0.0352941, 0, 0, 0.0352941, 336, 132)">
<path style="fill:#FFFF99;fill-opacity:1" d="M480 -438l0 70.5l-419 0l0 -70.5l419 0M480 -268l0 70.5l-419 0l0 -70.5l419 0" />
</g>
<g id="PathID_30" transform="matrix(0.0352941, 0, 0, 0.0352941, 384, 132)">
<path style="fill:#FFFF99;fill-opacity:1" d="M444.5 -288l-369.5 179l0 -80.5l285.5 -129l-285.5 -127.5l0 -80.5l369.5 177l0 61.5" />
</g>
<g id="PathID_31" transform="matrix(0.0352941, 0, 0, 0.0352941, 432, 132)">
<path style="fill:#FFFF99;fill-opacity:1" d="M183 -214.5l-66 0q-17 -47.5 -17 -68.5q0 -36 13.5 -73.5q13 -37.5 60 -89.5q46.5 -52.5 62.5 -80.5q16 -28 16 -54.5q0 -88 -106.5 -88q-51 0 -89 36.5l-36.5 -71.5q50.5 -41.5 150.5 -41.5q75 0 125 42.5q49.5 42.5 49.5 113.5q0 36 -12.5 69.5q-13 33 -39.5 61l-73 78q-44 54 -44 121q0 10.5 7 45.5l0 0M162 -140.5q31 0 53 22q22 22 22 53q0 31 -22 53.5q-22 22 -53 22q-31 0 -53 -22q-22 -22.5 -22 -53.5q0 -31 22 -53q22 -22 53 -22l0 0" />
</g>
<g id="PathID_32" transform="matrix(0.0352941, 0, 0, 0.0352941, 480, 132)">
<path style="fill:#FFFF99;fill-opacity:1" d="M588 -58q23 8.5 67.5 29q-96 96 -253 96q-160 0 -256 -98.5q-96.5 -98.5 -96.5 -259q0 -163 97.5 -267.5q97.5 -104.5 255 -104.5q151.5 0 244 90.5q92.5 90.5 92.5 241.5q0 85 -44.5 144.5q-45 59 -118.5 59q-79.5 0 -115 -35q-42.5 39 -100.5 39q-53.5 0 -86.5 -29q-33 -29.5 -33 -79q0 -63 54 -96q54 -33 146 -33q-7.5 -73.5 -59 -73.5q-52.5 0 -83 28l-24 -49.5q41 -30.5 100 -30.5q139 0 139 159.5l0 119.5q36 26.5 61 26.5q93 0 93 -152q0 -115.5 -75 -192.5q-75 -77 -190.5 -77q-126.5 0 -204 87.5q-77.5 87.5 -77.5 223.5q0 133.5 77 215q76.5 81.5 204.5 81.5q115.5 0 185.5 -64l0 0M441 -196.5l0 -117l-25.5 0q-97.5 0 -97.5 80q0 27 19 44.5q19 17.5 47.5 17.5q31.5 0 56.5 -25l0 0" />
</g>
<g id="PathID_33" transform="matrix(0.0352941, 0, 0, 0.0352941, 0, 180)">
<path style="fill:#FFFF99;fill-opacity:1" d="M491 0l-50.5 -154.5l-272.5 0l-54 154.5l-112 0l297.5 -742.5l26.5 0l276 742.5l-111 0M308 -550.5l-113.5 322.5l217.5 0l-104 -322.5" />
</g>
<g id="PathID_34" transform="matrix(0.0352941, 0, 0, 0.0352941, 48, 180)">
<path style="fill:#FFFF99;fill-opacity:1" d="M284 0l-209 0l0 -732.5q133.5 -6.5 192.5 -6.5q108.5 0 168 47q59.5 46.5 59.5 133.5q0 51 -38 93q-38 42 -84 52.5q87 21 127 69.5q39.5 48.5 39.5 132q0 96.5 -70.5 154q-71 57.5 -185 57.5l0 0M175 -652.5l0 210.5q31.5 3 78 3q142 0 142 -115.5q0 -101.5 -130.5 -101.5q-50 0 -89.5 3.5l0 0M175 -364.5l0 279.5q51.5 5 79 5q94 0 137.5 -35q43 -35.5 43 -112.5q0 -71.5 -41 -105.5q-41.5 -34 -138 -34l-80.5 2.5" />
</g>
<g id="PathID_35" transform="matrix(0.0352941, 0, 0, 0.0352941, 96, 180)">
<path style="fill:#FFFF99;fill-opacity:1" d="M542.5 -705.5l-33.5 85.5q-48 -35 -151 -35q-96.5 0 -154.5 83q-58.5 83 -58.5 214q0 125 60 203q59.5 77.5 154 77.5q103 0 158.5 -73l55 76.5q-87 86.5 -224 86.5q-143.5 0 -226 -103.5q-82.5 -103.5 -82.5 -273q0 -164 88 -272.5q88 -108.5 227.5 -108.5q119.5 0 187 39.5l0 0" />
</g>
<g id="PathID_36" transform="matrix(0.0352941, 0, 0, 0.0352941, 144, 180)">
<path style="fill:#FFFF99;fill-opacity:1" d="M222.5 0l-147.5 0l0 -732.5q141 -5 180.5 -5q153.5 0 243 93.5q89.5 93 89.5 248q0 396 -365.5 396l0 0M175 -642.5l0 547.5q33.5 5 83 5q105 0 165 -78.5q60 -79 60 -219q0 -260 -233.5 -260q-14 0 -74.5 5l0 0" />
</g>
<g id="PathID_37" transform="matrix(0.0352941, 0, 0, 0.0352941, 192, 180)">
<path style="fill:#FFFF99;fill-opacity:1" d="M175 -642.5l0 203.5l242 0l0 85l-242 0l0 264l332 0l0 90l-432 0l0 -732.5l437.5 0l0 90l-337.5 0" />
</g>
<g id="PathID_38" transform="matrix(0.0352941, 0, 0, 0.0352941, 240, 180)">
<path style="fill:#FFFF99;fill-opacity:1" d="M175 -642.5l0 203.5l257.5 0l0 85l-257.5 0l0 354l-100 0l0 -732.5l452.5 0l0 90l-352.5 0" />
</g>
<g id="PathID_39" transform="matrix(0.0352941, 0, 0, 0.0352941, 288, 180)">
<path style="fill:#FFFF99;fill-opacity:1" d="M582.5 -681.5l-41.5 82.5q-75.5 -56 -148 -56q-115 0 -181.5 81q-66.5 81 -66.5 214.5q0 127 65.5 204.5q65 77.5 177.5 77.5q80 0 129.5 -48l0 -171.5l-101.5 0l0 -85l201.5 0l0 319q-40 34 -111.5 55q-71.5 20.5 -139 20.5q-151.5 0 -239 -102.5q-88 -103 -88 -273.5q0 -170 96.5 -275.5q96 -106 259.5 -106q114.5 0 186.5 63.5l0 0" />
</g>
<g id="PathID_40" transform="matrix(0.0352941, 0, 0, 0.0352941, 336, 180)">
<path style="fill:#FFFF99;fill-opacity:1" d="M495 0l0 -354l-320 0l0 354l-100 0l0 -732.5l100 0l0 293.5l320 0l0 -293.5l100 0l0 732.5l-100 0" />
</g>
<g id="PathID_41" transform="matrix(0.0352941, 0, 0, 0.0352941, 384, 180)">
<path style="fill:#FFFF99;fill-opacity:1" d="M92.5 0l0 -732.5l100 0l0 732.5l-100 0" />
</g>
<g id="PathID_42" transform="matrix(0.0352941, 0, 0, 0.0352941, 432, 180)">
<path style="fill:#FFFF99;fill-opacity:1" d="M24.5 -146.5l87.5 0q12 66.5 79.5 66.5q67 0 94.5 -28.5q27 -29 27 -161l0 -463l100 0l0 459q0 150 -48.5 217q-48.5 66.5 -172.5 66.5q-71.5 0 -117 -42.5q-46 -42.5 -50.5 -114l0 0" />
</g>
<g id="PathID_43" transform="matrix(0.0352941, 0, 0, 0.0352941, 480, 180)">
<path style="fill:#FFFF99;fill-opacity:1" d="M479 0l-206.5 -337l-97.5 138.5l0 198.5l-100 0l0 -732.5l100 0l0 398.5l272 -398.5l111.5 0l-219 317.5l250 415l-110.5 0" />
</g>
<g id="PathID_44" transform="matrix(0.0352941, 0, 0, 0.0352941, 0, 228)">
<path style="fill:#FFFF99;fill-opacity:1" d="M75 0l0 -732.5l100 0l0 642.5l331 0l0 90l-431 0" />
</g>
<g id="PathID_45" transform="matrix(0.0352941, 0, 0, 0.0352941, 48, 228)">
<path style="fill:#FFFF99;fill-opacity:1" d="M626.5 0l-87 -470.5l-160 480.5l-25 0l-164.5 -480.5l-85 470.5l-95 0l137 -732.5l45.5 0l174.5 534.5l161 -534.5l45 0l148.5 732.5l-95 0" />
</g>
<g id="PathID_46" transform="matrix(0.0352941, 0, 0, 0.0352941, 96, 228)">
<path style="fill:#FFFF99;fill-opacity:1" d="M548.5 10l-378.5 -535.5l0 525.5l-95 0l0 -732.5l40 0l368.5 506.5l0 -506.5l95 0l0 742.5l-30 0" />
</g>
<g id="PathID_47" transform="matrix(0.0352941, 0, 0, 0.0352941, 144, 228)">
<path style="fill:#FFFF99;fill-opacity:1" d="M40 -372.5q0 -159 80 -266q79.5 -107 215 -107q152.5 0 234 98.5q81 98.5 81 274.5q0 180.5 -81.5 283q-81.5 102 -233.5 102q-138.5 0 -216.5 -108q-78.5 -108 -78.5 -277l0 0M145 -372.5q0 126 50 210.5q49.5 84.5 140 84.5q102.5 0 156.5 -77.5q53.5 -77.5 53.5 -217.5q0 -283 -210 -283q-93 0 -141.5 76q-48.5 76 -48.5 207l0 0" />
</g>
<g id="PathID_48" transform="matrix(0.0352941, 0, 0, 0.0352941, 192, 228)">
<path style="fill:#FFFF99;fill-opacity:1" d="M175 -282l0 282l-100 0l0 -732.5q113.5 -5 137 -5q319 0 319 213.5q0 247 -282 247q-17 0 -74 -5l0 0M175 -642.5l0 270.5q63.5 5 67 5q186 0 186 -146.5q0 -134 -198.5 -134q-20 0 -54.5 5l0 0" />
</g>
<g id="PathID_49" transform="matrix(0.0352941, 0, 0, 0.0352941, 240, 228)">
<path style="fill:#FFFF99;fill-opacity:1" d="M760 54l-15 97.5q-262 0 -343.5 -145.5q-15.5 6.5 -66.5 6.5q-138.5 0 -216.5 -108q-78.5 -108 -78.5 -277q0 -158.5 79.5 -265.5q79.5 -107.5 215.5 -107.5q152.5 0 234 98.5q81 98.5 81 274.5q0 252.5 -151 346.5q54.5 80 183 80l78 0M335 -655.5q-93 0 -141.5 76q-48.5 76 -48.5 207q0 126 50 210.5q49.5 84.5 140 84.5q103 0 156.5 -78q53.5 -78.5 53.5 -217q0 -283 -210 -283l0 0" />
</g>
<g id="PathID_50" transform="matrix(0.0352941, 0, 0, 0.0352941, 288, 228)">
<path style="fill:#FFFF99;fill-opacity:1" d="M481.5 0l-195.5 -314.5q-33.5 0 -106 -5l0 319.5l-100 0l0 -732.5q5.5 0 78 -3.5q72 -4 105 -4q264 0 264 210q0 69 -42.5 124.5q-42.5 55 -101 68.5l212.5 337l-114.5 0M180 -642.5l0 238q36 5 70 5q90 0 131 -29q41 -29 41 -103.5q0 -61.5 -44 -88.5q-44 -27 -139 -27q-15 0 -59 5l0 0" />
</g>
<g id="PathID_51" transform="matrix(0.0352941, 0, 0, 0.0352941, 336, 228)">
<path style="fill:#FFFF99;fill-opacity:1" d="M42 -33.5l36.5 -92q28 20.5 70 34.5q41.5 13.5 74.5 13.5q58.5 0 94 -32q35.5 -32 35.5 -81.5q0 -37 -19.5 -68.5q-20 -32 -99.5 -69.5l-59 -27.5q-75 -35 -104.5 -83q-30 -48 -30 -115.5q0 -82 58 -136q58 -54 149 -54q121.5 0 169 39.5l-29.5 87q-20 -14.5 -61 -28q-41 -13.5 -76 -13.5q-51 0 -80 29q-29.5 29 -29.5 74.5q0 28 10.5 51q10.5 23 29.5 38.5q18.5 15.5 76.5 43.5l60 28.5q75 35.5 105.5 85q30 49 30 125q0 82.5 -66 140q-66.5 57.5 -177.5 57.5q-97.5 0 -166.5 -46l0 0" />
</g>
<g id="PathID_52" transform="matrix(0.0352941, 0, 0, 0.0352941, 384, 228)">
<path style="fill:#FFFF99;fill-opacity:1" d="M342 -642.5l0 642.5l-100 0l0 -642.5l-233 0l0 -90l576.5 0l0 90l-243.5 0" />
</g>
<g id="PathID_53" transform="matrix(0.0352941, 0, 0, 0.0352941, 432, 228)">
<path style="fill:#FFFF99;fill-opacity:1" d="M75 -732.5l100 0l0 501.5q0 67 42.5 110.5q42.5 43 112.5 43q74 0 116.5 -42q42.5 -42 42.5 -114l0 -499l100 0l0 509.5q0 111 -69 173.5q-69.5 62 -189 62q-123 0 -189.5 -61q-66.5 -61 -66.5 -175l0 -509" />
</g>
<g id="PathID_54" transform="matrix(0.0352941, 0, 0, 0.0352941, 480, 228)">
<path style="fill:#FFFF99;fill-opacity:1" d="M330 10l-50.5 0l-273 -742.5l111 0l188.5 539.5l181.5 -539.5l107.5 0l-265 742.5" />
</g>
<g id="PathID_55" transform="matrix(0.0352941, 0, 0, 0.0352941, 0, 276)">
<path style="fill:#FFFF99;fill-opacity:1" d="M638 10l-31.5 0l-174.5 -505l-163 505l-31.5 0l-231 -742.5l104 0l147 511.5l161 -511.5l35 0l159 510.5l149.5 -510.5l104 0l-228 742.5" />
</g>
<g id="PathID_56" transform="matrix(0.0352941, 0, 0, 0.0352941, 48, 276)">
<path style="fill:#FFFF99;fill-opacity:1" d="M457.5 0l-182 -294l-168 294l-101 0l216 -380l-198.5 -353l98.5 0.5l156.5 277l172.5 -277l100.5 0l-227.5 354.5l239 378l-106 0" />
</g>
<g id="PathID_57" transform="matrix(0.0352941, 0, 0, 0.0352941, 96, 276)">
<path style="fill:#FFFF99;fill-opacity:1" d="M342.5 -328l0 328l-100 0l0 -328l-236 -404.5l103 0l182.5 320l182.5 -320l103 0l-235 404.5" />
</g>
<g id="PathID_58" transform="matrix(0.0352941, 0, 0, 0.0352941, 144, 276)">
<path style="fill:#FFFF99;fill-opacity:1" d="M50 0l0 -25l315 -617.5l-310 0l0 -90l447.5 0l0 25l-316 617.5l327 0l0 90l-463.5 0" />
</g>
<g id="PathID_59" transform="matrix(0.0352941, 0, 0, 0.0352941, 192, 276)">
<path style="fill:#FFFF99;fill-opacity:1" d="M101 210l0 -965l231.5 0l0 85l-131.5 0l0 795l131.5 0l0 85l-231.5 0" />
</g>
<g id="PathID_60" transform="matrix(0.0352941, 0, 0, 0.0352941, 240, 276)">
<path style="fill:#FFFF99;fill-opacity:1" d="M256 0l-257.5 -735.5l71 0l258 735.5l-71.5 0" />
</g>
<g id="PathID_61" transform="matrix(0.0352941, 0, 0, 0.0352941, 288, 276)">
<path style="fill:#FFFF99;fill-opacity:1" d="M275 210l-231.5 0l0 -85l131.5 0l0 -795l-131.5 0l0 -85l231.5 0l0 965" />
</g>
<g id="PathID_62" transform="matrix(0.0352941, 0, 0, 0.0352941, 336, 276)">
<path style="fill:#FFFF99;fill-opacity:1" d="M381.5 -453.5l-122 -224l-124 226l-61 0l159 -284l53.5 0l158 282l-63.5 0" />
</g>
<g id="PathID_63" transform="matrix(0.0352941, 0, 0, 0.0352941, 384, 276)">
<path style="fill:#FFFF99;fill-opacity:1" d="M-4 127l0 -64.5l542.5 0l0 64.5l-542.5 0" />
</g>
<g id="PathID_64" transform="matrix(0.0352941, 0, 0, 0.0352941, 432, 276)">
<path style="fill:#FFFF99;fill-opacity:1" d="M279.5 -642.5l-113 -166.5l98.5 0l84.5 166.5l-70 0" />
</g>
<g id="PathID_65" transform="matrix(0.0352941, 0, 0, 0.0352941, 480, 276)">
<path style="fill:#FFFF99;fill-opacity:1" d="M370 -61.5q-57 71.5 -174.5 71.5q-63 0 -109 -45.5q-46.5 -46 -46.5 -114q0 -81.5 71.5 -137.5q71 -56.5 181.5 -56.5q30 0 68 13q0 -130 -116 -130q-89 0 -137 48l-40 -79.5q27 -22 75 -37.5q47.5 -16 91 -16q116.5 0 169.5 53q52.5 53 52.5 168.5l0 192q0 70.5 42 94l0 47.5q-58 0 -86.5 -16.5q-29 -16.5 -41.5 -54.5l0 0M361 -263q-45 -10 -63 -10q-72 0 -117.5 37q-45.5 37 -45.5 87.5q0 83.5 98.5 83.5q72 0 127.5 -68.5l0 -129.5" />
</g>
<g id="PathID_66" transform="matrix(0.0352941, 0, 0, 0.0352941, 0, 324)">
<path style="fill:#FFFF99;fill-opacity:1" d="M148.5 -38.5l-33.5 48.5l-47.5 0l0 -765l95 0l0 259q13.5 -18.5 51 -34q37 -15.5 73 -15.5q110 0 178.5 76q68 76 68 192q0 134 -68.5 211q-68.5 76.5 -185.5 76.5q-38 0 -74.5 -14q-37 -14.5 -56 -34.5l0 0M162.5 -423.5l0 309q0 8 35.5 26.5q35.5 18 54 18q97 0 139 -46.5q42 -46.5 42 -156q0 -91 -49 -142q-49 -51 -132 -51q-17.5 0 -48.5 15q-31.5 15 -41 27l0 0" />
</g>
<g id="PathID_67" transform="matrix(0.0352941, 0, 0, 0.0352941, 48, 324)">
<path style="fill:#FFFF99;fill-opacity:1" d="M471.5 -492l-47 67q-14.5 -14.5 -51 -27.5q-37 -13 -72.5 -13q-77.5 0 -123 54.5q-45.5 54 -45.5 148.5q0 94 46.5 143.5q46.5 49 129 49q64 0 129 -49.5l37.5 80q-76.5 49.5 -189.5 49.5q-109.5 0 -181 -73.5q-71.5 -73.5 -71.5 -199q0 -128 74.5 -205.5q74 -77.5 203 -77.5q41.5 0 90 17.5q48.5 17.5 71.5 36l0 0" />
</g>
<g id="PathID_68" transform="matrix(0.0352941, 0, 0, 0.0352941, 96, 324)">
<path style="fill:#FFFF99;fill-opacity:1" d="M407 -0.5l0 -39.5q-49.5 49.5 -144 49.5q-100.5 0 -163 -72q-62.5 -72 -62.5 -192q0 -120.5 72 -205.5q72 -85.5 171.5 -85.5q83 0 126 39l0 -248.5l95 0l0 754.5l-95 0M407 -411.5q-36 -54 -98.5 -54q-76.5 0 -123.5 57q-47.5 57 -47.5 145q0 193.5 176 193.5q22.5 0 54 -14q31.5 -14.5 39.5 -30.5l0 -297" />
</g>
<g id="PathID_69" transform="matrix(0.0352941, 0, 0, 0.0352941, 144, 324)">
<path style="fill:#FFFF99;fill-opacity:1" d="M518.5 -258.5l-386 0q0 94 51.5 144.5q45.5 44 117 44q81.5 0 136 -47.5l40 68.5q-22 22 -67.5 38q-57 21 -127 21q-101 0 -171.5 -68.5q-78.5 -75.5 -78.5 -203q0 -132.5 80.5 -212.5q72 -71.5 170.5 -71.5q114.5 0 179.5 64.5q63 62 63 164.5q0 31.5 -7.5 58l0 0M288 -465.5q-63.5 0 -106.5 41q-41 39 -46.5 97l296.5 0q0 -57.5 -36 -96q-39.5 -42 -107.5 -42l0 0" />
</g>
<g id="PathID_70" transform="matrix(0.0352941, 0, 0, 0.0352941, 192, 324)">
<path style="fill:#FFFF99;fill-opacity:1" d="M357 -670q-29 -10 -54 -10q-43.5 0 -71.5 33q-28.5 33 -28.5 83.5q0 13.5 2.5 28l109 0l0 80l-109 0l0 455.5l-95 0l0 -455.5l-78 0l0 -80l78 0q0 -102.5 50.5 -161q50.5 -58.5 133.5 -58.5q41.5 0 89 15l-26.5 70" />
</g>
<g id="PathID_71" transform="matrix(0.0352941, 0, 0, 0.0352941, 240, 324)">
<path style="fill:#FFFF99;fill-opacity:1" d="M48 146.5l51.5 -76q83 55.5 153 55.5q64.5 0 102 -22q37 -22.5 37 -55.5q0 -65 -94 -65q-16 0 -58 8q-42 8 -65.5 8q-114 0 -114 -86q0 -26.5 27 -48q26.5 -21.5 66 -31q-113 -53 -113 -184q0 -84 58.5 -140q58.5 -56 144.5 -56q79 0 123.5 32.5l47.5 -57l62 58.5l-57 43q36.5 47.5 36.5 124q0 81 -50.5 136q-50.5 55 -132.5 63l-78.5 8q-14 1.5 -37.5 11q-23.5 9 -23.5 24q0 20.5 49 20.5q21.5 0 67 -7.5q45.5 -8 67.5 -8q79 0 123.5 38q44 37.5 44 104.5q0 74 -66 119.5q-66.5 45.5 -168 45.5q-52 0 -109.5 -18.5q-57.5 -18.5 -92.5 -45l0 0M249.5 -469q-49.5 0 -80.5 35q-31.5 35 -31.5 85q0 56 30.5 93q30 36.5 81.5 36.5q50.5 0 79 -35.5q28.5 -36 28.5 -94q0 -50 -30.5 -85q-31 -35 -77 -35l0 0" />
</g>
<g id="PathID_72" transform="matrix(0.0352941, 0, 0, 0.0352941, 288, 324)">
<path style="fill:#FFFF99;fill-opacity:1" d="M397.5 0l0 -336.5q0 -60 -29.5 -94.5q-29.5 -34.5 -83 -34.5q-34.5 0 -69 20.5q-35 20 -53.5 47l0 398l-95 0l0 -755l95 0l0 278.5q19 -29.5 61.5 -49q42 -20 87 -20q85 0 133.5 56q48 56 48 153l0 336.5l-95 0" />
</g>
<g id="PathID_73" transform="matrix(0.0352941, 0, 0, 0.0352941, 336, 324)">
<path style="fill:#FFFF99;fill-opacity:1" d="M165.5 -738q24.5 0 42 17.5q17 17 17 41q0 24.5 -17 42q-17.5 17 -42 17q-24 0 -41 -17q-17.5 -17.5 -17.5 -42q0 -24.5 17 -41.5q17 -17 41.5 -17l0 0M113.5 0l0 -455.5l-73.5 0l0 -80l168.5 0l0 535.5l-95 0" />
</g>
<g id="PathID_74" transform="matrix(0.0352941, 0, 0, 0.0352941, 384, 324)">
<path style="fill:#FFFF99;fill-opacity:1" d="M214 -738q24.5 0 42 17.5q17 17 17 41q0 24.5 -17 42q-17.5 17 -42 17q-24.5 0 -41.5 -17q-17 -17.5 -17 -42q0 -24.5 17 -41.5q17 -17 41.5 -17l0 0M9 210l0 -85q98 0 134.5 -29.5q36 -30 36 -98l0 -453l-106.5 0l0 -80l201.5 0l0 531q0 110.5 -65 162.5q-65 52 -200.5 52l0 0" />
</g>
<g id="PathID_75" transform="matrix(0.0352941, 0, 0, 0.0352941, 432, 324)">
<path style="fill:#FFFF99;fill-opacity:1" d="M413.5 0l-168 -268l-83 85.5l0 182.5l-95 0l0 -755l95 0l0 468.5l205 -249l111 0l-171.5 203.5l209.5 332l-103 0" />
</g>
<g id="PathID_76" transform="matrix(0.0352941, 0, 0, 0.0352941, 480, 324)">
<path style="fill:#FFFF99;fill-opacity:1" d="M75 -151.5l0 -603.5l95 0l0 587.5q0 43 25 68q24.5 24.5 64.5 24.5l0 85q-184.5 0 -184.5 -161.5l0 0" />
</g>
<g id="PathID_77" transform="matrix(0.0352941, 0, 0, 0.0352941, 0, 372)">
<path style="fill:#FFFF99;fill-opacity:1" d="M687.5 0l0 -339q0 -126.5 -109.5 -126.5q-34.5 0 -64.5 21.5q-30 21 -41 48l0 396l-95 0l0 -380.5q0 -39.5 -29.5 -62q-30 -23 -79 -23q-28.5 0 -60.5 22q-32.5 22 -46 48.5l0 395l-95 0l0 -535.5l62 0l31.5 62q55 -72 137.5 -72q115 0 161 71.5q16 -30.5 59.5 -51q43.5 -20.5 89.5 -20.5q83 0 128.5 49.5q45.5 49 45.5 138l0 358l-95 0" />
</g>
<g id="PathID_78" transform="matrix(0.0352941, 0, 0, 0.0352941, 48, 372)">
<path style="fill:#FFFF99;fill-opacity:1" d="M397 0l0 -311.5q0 -85.5 -25.5 -119.5q-26 -34.5 -86.5 -34.5q-32.5 0 -68 19.5q-35.5 19.5 -54.5 48l0 398l-95 0l0 -535.5l65 0l30 69q47 -79 153.5 -79q176 0 176 214l0 331.5l-95 0" />
</g>
<g id="PathID_79" transform="matrix(0.0352941, 0, 0, 0.0352941, 96, 372)">
<path style="fill:#FFFF99;fill-opacity:1" d="M32.5 -269q0 -124 67 -200q66.5 -76.5 175.5 -76.5q115 0 178.5 73.5q63.5 73 63.5 203q0 129.5 -65 204.5q-65 74.5 -177 74.5q-114.5 0 -178.5 -75.5q-64 -75.5 -64 -203.5l0 0M132.5 -269q0 201.5 142.5 201.5q66.5 0 104.5 -54q37.5 -54 37.5 -147.5q0 -199 -142 -199q-65 0 -103.5 53q-39 53 -39 146l0 0" />
</g>
<g id="PathID_80" transform="matrix(0.0352941, 0, 0, 0.0352941, 144, 372)">
<path style="fill:#FFFF99;fill-opacity:1" d="M162.5 -29.5l0 239.5l-95 0l0 -745.5l95 0l0 44q54 -54 130.5 -54q114 0 177.5 71q63.5 71 63.5 208q0 122 -64 199.5q-64 77 -185 77q-34 0 -72.5 -12q-39 -12 -50 -27.5l0 0M162.5 -420l0 312q9 13.5 38 26q29 12 56.5 12q177 0 177 -200q0 -101.5 -42 -148.5q-42 -47 -134.5 -47q-20 0 -49 14q-29 14 -46 31.5l0 0" />
</g>
<g id="PathID_81" transform="matrix(0.0352941, 0, 0, 0.0352941, 192, 372)">
<path style="fill:#FFFF99;fill-opacity:1" d="M410.5 210l0 -241.5q-41.5 41.5 -139 41.5q-109.5 0 -171.5 -73q-62.5 -73.5 -62.5 -203.5q0 -128.5 71.5 -203.5q71 -75.5 183 -75.5q70 0 130.5 50.5l25.5 -40.5l57.5 0l0 745.5l-95 0M410.5 -424.5q-41 -41 -102.5 -41q-80.5 0 -125.5 54.5q-45 54.5 -45 144.5q0 93 45 145q45 51.5 121.5 51.5q68.5 0 106.5 -35l0 -319.5" />
</g>
<g id="PathID_82" transform="matrix(0.0352941, 0, 0, 0.0352941, 240, 372)">
<path style="fill:#FFFF99;fill-opacity:1" d="M358.5 -444q-31 -21.5 -62.5 -21.5q-50.5 0 -88 46.5q-38 46.5 -38 112l0 307l-95 0l0 -535.5l95 0l0 85.5q52 -95.5 154.5 -95.5q25.5 0 73.5 9l-39.5 92.5" />
</g>
<g id="PathID_83" transform="matrix(0.0352941, 0, 0, 0.0352941, 288, 372)">
<path style="fill:#FFFF99;fill-opacity:1" d="M32.5 -32l33.5 -90q79.5 52 128 52q88 0 88 -74q0 -53 -85 -91q-65.5 -30 -88 -45.5q-23 -15.5 -39.5 -35q-17 -20 -25 -42q-8.5 -22.5 -8.5 -48q0 -66 48 -103q48 -37 125.5 -37q58.5 0 147.5 37l-27 88q-56.5 -45 -113.5 -45q-34 0 -57 16q-23.5 16 -23.5 40.5q0 51.5 58.5 78l68 31q62.5 28.5 91 65q28.5 36.5 28.5 91.5q0 72 -50.5 113q-50.5 40.5 -140 40.5q-84.5 0 -159 -42l0 0" />
</g>
<g id="PathID_84" transform="matrix(0.0352941, 0, 0, 0.0352941, 336, 372)">
<path style="fill:#FFFF99;fill-opacity:1" d="M101.5 -460.5l-62 0l0 -75l62 0l0 -112l95 -36.5l0 148.5l147 0l0 75l-147 0l0 266q0 67.5 23 96q22.5 28.5 73 28.5q36.5 0 75.5 -18.5l14 83.5q-59 15 -129.5 15q-63.5 0 -107 -47q-44 -47.5 -44 -119.5l0 -304" />
</g>
<g id="PathID_85" transform="matrix(0.0352941, 0, 0, 0.0352941, 384, 372)">
<path style="fill:#FFFF99;fill-opacity:1" d="M157.5 -535.5l0 341.5q0 124 107.5 124q47 0 86 -27q39 -27 51.5 -62.5l0 -376l95 0l0 535.5l-95 0l0 -74q-16 31.5 -64 58q-48.5 26 -94.5 26q-88 0 -134.5 -50.5q-47 -50.5 -47 -143.5l0 -351.5l95 0" />
</g>
<g id="PathID_86" transform="matrix(0.0352941, 0, 0, 0.0352941, 432, 372)">
<path style="fill:#FFFF99;fill-opacity:1" d="M260.5 10l-25 0l-229.5 -547l104 0l141.5 375l144.5 -375l99.5 0l-235 547" />
</g>
<g id="PathID_87" transform="matrix(0.0352941, 0, 0, 0.0352941, 480, 372)">
<path style="fill:#FFFF99;fill-opacity:1" d="M562.5 10l-25 0l-157 -364.5l-156.5 364.5l-25 0l-191.5 -547l101.5 0l114.5 351.5l142.5 -351.5l25 0l147 351.5l123 -351.5l93.5 0l-192 547" />
</g>
<g id="PathID_88" transform="matrix(0.0352941, 0, 0, 0.0352941, 0, 420)">
<path style="fill:#FFFF99;fill-opacity:1" d="M393.5 0l-146 -195l-130.5 195l-111 0l194.5 -274l-178.5 -261.5l107 0l120 184l134.5 -184l105 0l-194.5 261.5l213 274l-113.5 0" />
</g>
<g id="PathID_89" transform="matrix(0.0352941, 0, 0, 0.0352941, 48, 420)">
<path style="fill:#FFFF99;fill-opacity:1" d="M272 91q-18.5 51 -77.5 85q-59.5 34 -132.5 34l0 -85q59.5 0 102 -27.5q42.5 -28 42.5 -68q0 -44 -15.5 -86.5q-15.5 -43 -40 -106l-145 -372.5l97 0l157.5 414l141.5 -414l97 0l-227 626.5" />
</g>
<g id="PathID_90" transform="matrix(0.0352941, 0, 0, 0.0352941, 96, 420)">
<path style="fill:#FFFF99;fill-opacity:1" d="M169 -85l297 0l0 85l-446 0l0 -25l304.5 -425.5l-299.5 0l0 -85l438 0l0 27l-294 423.5" />
</g>
<g id="PathID_91" transform="matrix(0.0352941, 0, 0, 0.0352941, 144, 420)">
<path style="fill:#FFFF99;fill-opacity:1" d="M284 210q-85.5 0 -141.5 -41q-56 -41 -56 -108q0 -35 18.5 -107q18.5 -72 18.5 -109.5q0 -99 -104.5 -106l0 -42q49.5 -4 77 -34.5q27.5 -31 27.5 -80q0 -34 -18.5 -96.5q-18.5 -63 -18.5 -93.5q0 -64 56 -103.5q55.5 -39.5 137 -39.5l74 0l0 66.5l-87.5 0q-82 0 -82 92q0 32.5 16 83.5q15.5 51 15.5 81.5q0 79 -112.5 144q52.5 21.5 82.5 56q30 34.5 30 69q0 32.5 -15.5 90q-16 57.5 -16 94.5q0 114 131.5 114l38 0l0 70l-69.5 0" />
</g>
<g id="PathID_92" transform="matrix(0.0352941, 0, 0, 0.0352941, 192, 420)">
<path style="fill:#FFFF99;fill-opacity:1" d="M231 138l0 -840.5l73 0l0 840.5l-73 0" />
</g>
<g id="PathID_93" transform="matrix(0.0352941, 0, 0, 0.0352941, 240, 420)">
<path style="fill:#FFFF99;fill-opacity:1" d="M19 210l0 -70l38 0q131.5 0 131.5 -114q0 -37 -15.5 -94.5q-16 -57.5 -16 -90q0 -34.5 30 -69q30 -34.5 82.5 -56q-112.5 -65 -112.5 -144q0 -30.5 16 -81.5q15.5 -51 15.5 -83.5q0 -92 -82 -92l-87.5 0l0 -66.5l74 0q81.5 0 137.5 39.5q55.5 39.5 55.5 103.5q0 30.5 -18.5 93.5q-18.5 62.5 -18.5 96.5q0 49 27.5 80q27.5 30.5 77 34.5l0 42q-104.5 7 -104.5 106q0 37 18.5 108.5q18.5 71 18.5 108q0 67 -56 108q-56 41 -141.5 41l-69.5 0" />
</g>
<g id="PathID_94" transform="matrix(0.0352941, 0, 0, 0.0352941, 288, 420)">
<path style="fill:#FFFF99;fill-opacity:1" d="M452 -358q-26.5 103.5 -96 103.5q-39.5 0 -101.5 -19q-62 -19.5 -76 -19.5q-35.5 0 -54 38.5l-45.5 0q7 -42 32.5 -72.5q25 -31 59.5 -31q43.5 0 101.5 19.5q57.5 19 81.5 19q40.5 0 54 -38.5l44 0" />
</g>
<g id="PathID_95" transform="matrix(0.0352941, 0, 0, 0.0352941, 336, 420)">
<path style="fill:#FFFF99;fill-opacity:1" d="M341 -642.5l-81.5 -94.5l-89 94.5l-86 0l149 -169l53.5 0l152.5 169l-98.5 0" />
</g>
<g id="PathID_96" transform="matrix(0.0352941, 0, 0, 0.0352941, 384, 420)">
<path style="fill:#FFFF99;fill-opacity:1" d="M420 -746q-26.5 103.5 -96 103.5q-31.5 0 -69 -19q-38 -19.5 -53.5 -19.5q-35.5 0 -54 38.5l-45.5 0q7 -42 32.5 -72.5q25 -31 59.5 -31q41 0 76 19.5q34.5 19 52 19q40.5 0 54 -38.5l44 0" />
</g>
<g id="PathID_97" transform="matrix(0.0352941, 0, 0, 0.0352941, 432, 420)">
<path style="fill:#FFFF99;fill-opacity:1" d="M46.5 -266l0 -48l260.5 0l0 48l-260.5 0" />
</g>
<g id="PathID_98" transform="matrix(0.0352941, 0, 0, 0.0352941, 480, 420)">
<path style="fill:#FFFF99;fill-opacity:1" d="M46.5 -266l0 -48l654.5 0l0 48l-654.5 0" />
</g>
<g id="PathID_99" transform="matrix(0.0352941, 0, 0, 0.0352941, 0, 468)">
<path style="fill:#FFFF99;fill-opacity:1" d="M276.5 -710.5l-37.5 32q-27.5 23.5 -27.5 57.5q0 20.5 24.5 47.5q24.5 27 24.5 49.5q0 73.5 -72.5 73.5q-77.5 0 -77.5 -88.5q0 -132.5 132.5 -216l33.5 44.5" />
</g>
<g id="PathID_100" transform="matrix(0.0352941, 0, 0, 0.0352941, 48, 468)">
<path style="fill:#FFFF99;fill-opacity:1" d="M265.5 -666.5q0 132.5 -132.5 216l-33.5 -44.5l37.5 -32q27.5 -23.5 27.5 -57.5q0 -20.5 -24.5 -47.5q-24.5 -27 -24.5 -49.5q0 -73.5 72.5 -73.5q77.5 0 77.5 88.5l0 0" />
</g>
<g id="PathID_101" transform="matrix(0.0352941, 0, 0, 0.0352941, 96, 468)">
<path style="fill:#FFFF99;fill-opacity:1" d="M265.5 -50q0 132.5 -132.5 216l-33.5 -44.5l37.5 -32q27.5 -23.5 27.5 -57.5q0 -20.5 -24.5 -47.5q-24.5 -27 -24.5 -49.5q0 -73.5 72.5 -73.5q77.5 0 77.5 88.5l0 0" />
</g>
<g id="PathID_102" transform="matrix(0.0352941, 0, 0, 0.0352941, 144, 468)">
<path style="fill:#FFFF99;fill-opacity:1" d="M474.5 -710.5l-37.5 32q-27.5 23.5 -27.5 57.5q0 20.5 24.5 47.5q24.5 27 24.5 49.5q0 73.5 -72.5 73.5q-77.5 0 -77.5 -88.5q0 -132.5 132.5 -216l33.5 44.5M249.5 -710.5l-37.5 32q-27.5 23.5 -27.5 57.5q0 20.5 24.5 47.5q24.5 27 24.5 49.5q0 73.5 -72.5 73.5q-77.5 0 -77.5 -88.5q0 -132.5 132.5 -216l33.5 44.5" />
</g>
<g id="PathID_103" transform="matrix(0.0352941, 0, 0, 0.0352941, 192, 468)">
<path style="fill:#FFFF99;fill-opacity:1" d="M477.5 -666.5q0 132.5 -132.5 216l-33.5 -44.5l37.5 -32q27.5 -23.5 27.5 -57.5q0 -20.5 -24.5 -47.5q-24.5 -27 -24.5 -49.5q0 -73.5 72.5 -73.5q77.5 0 77.5 88.5l0 0M248 -666.5q0 132.5 -132.5 216l-33.5 -44.5l37.5 -32q27.5 -23.5 27.5 -57.5q0 -20.5 -24.5 -47.5q-24.5 -27 -24.5 -49.5q0 -73.5 72.5 -73.5q77.5 0 77.5 88.5l0 0" />
</g>
<g id="PathID_104" transform="matrix(0.0352941, 0, 0, 0.0352941, 240, 468)">
<path style="fill:#FFFF99;fill-opacity:1" d="M477.5 -50q0 132.5 -132.5 216l-33.5 -44.5l37.5 -32q27.5 -23.5 27.5 -57.5q0 -20.5 -24.5 -47.5q-24.5 -27 -24.5 -49.5q0 -73.5 72.5 -73.5q77.5 0 77.5 88.5l0 0M248 -50q0 132.5 -132.5 216l-33.5 -44.5l37.5 -32q27.5 -23.5 27.5 -57.5q0 -20.5 -24.5 -47.5q-24.5 -27 -24.5 -49.5q0 -73.5 72.5 -73.5q77.5 0 77.5 88.5l0 0" />
</g>
<g id="PathID_105" transform="matrix(0.0352941, 0, 0, 0.0352941, 288, 468)">
<path style="fill:#FFFF99;fill-opacity:1" d="M197.5 -465.5l-185 0l0 -70l185 0l0 -157l75 0l0 157l185 0l0 70l-185 0l0 590.5l-37 44l-38 -44l0 -590.5" />
</g>
<g id="PathID_106" transform="matrix(0.0352941, 0, 0, 0.0352941, 336, 468)">
<path style="fill:#FFFF99;fill-opacity:1" d="M457.5 -190.5l0 70l-185 0l0 245.5l-38 47l-37 -47l0 -245.5l-185 0l0 -70l185 0l0 -275l-185 0l0 -70l185 0l0 -157l75 0l0 157l185 0l0 70l-185 0l0 275l185 0" />
</g>
<g id="PathID_107" transform="matrix(0.0352941, 0, 0, 0.0352941, 384, 468)">
<path style="fill:#FFFF99;fill-opacity:1" d="M271 -431.5q60 0 102.5 42.5q42 42 42 102q0 60 -42 102.5q-42.5 42 -102.5 42q-60 0 -102 -42q-42.5 -42.5 -42.5 -102.5q0 -60 42.5 -102q42 -42.5 102 -42.5l0 0" />
</g>
<g id="PathID_108" transform="matrix(0.0352941, 0, 0, 0.0352941, 432, 468)">
<path style="fill:#FFFF99;fill-opacity:1" d="M200 -65.5q0 31 -22 53.5q-22 22 -53 22q-31 0 -53 -22q-22 -22.5 -22 -53.5q0 -31 22 -53q22 -22 53 -22q31 0 53 22q22 22 22 53l0 0M451 -65.5q0 31 -22 53.5q-22 22 -53 22q-31 0 -53 -22q-22 -22.5 -22 -53.5q0 -31 22 -53q22 -22 53 -22q31 0 53 22q22 22 22 53l0 0M702 -65.5q0 31 -22 53.5q-22 22 -53 22q-31 0 -53 -22q-22 -22.5 -22 -53.5q0 -31 22 -53q22 -22 53 -22q31 0 53 22q22 22 22 53l0 0" />
</g>
<g id="PathID_109" transform="matrix(0.0352941, 0, 0, 0.0352941, 480, 468)">
<path style="fill:#FFFF99;fill-opacity:1" d="M109 10l-63.5 0l441.5 -755.5l63 0l-441 755.5M30.5 -581q0 -73.5 40.5 -119q40.5 -45.5 103 -45.5q61.5 0 98.5 45q36.5 45 36.5 129q0 78 -39 124q-39 45.5 -100.5 45.5q-139 0 -139 -179l0 0M93.5 -576q0 58.5 20 91q19.5 32 51.5 32q81 0 81 -122.5q0 -119 -73.5 -119q-36.5 0 -57.5 32q-21.5 32 -21.5 86.5l0 0M300.5 -169q0 -73.5 40.5 -119q40.5 -45.5 103 -45.5q61.5 0 98.5 45q36.5 45 36.5 129q0 78 -39 124q-39 45.5 -100.5 45.5q-139 0 -139 -179l0 0M363.5 -164q0 58.5 20 91q19.5 32 51.5 32q81 0 81 -122.5q0 -119 -73.5 -119q-36.5 0 -57.5 32q-21.5 32 -21.5 86.5l0 0M625.5 -169q0 -73.5 40.5 -119q40.5 -45.5 103 -45.5q61.5 0 98.5 45q36.5 45 36.5 129q0 78 -39 124q-39 45.5 -100.5 45.5q-139 0 -139 -179l0 0M688.5 -164q0 58.5 20 91q19.5 32 51.5 32q81 0 81 -122.5q0 -119 -73.5 -119q-36.5 0 -57.5 32q-21.5 32 -21.5 86.5l0 0" />
</g>
<g id="PathID_110" transform="matrix(0.0352941, 0, 0, 0.0352941, 0, 516)">
<path style="fill:#FFFF99;fill-opacity:1" d="M85.5 -267.5l0 -32l177.5 -122l0 62.5l-106 78.5l106 69l0 62.5l-177.5 -118.5" />
</g>
<g id="PathID_111" transform="matrix(0.0352941, 0, 0, 0.0352941, 48, 516)">
<path style="fill:#FFFF99;fill-opacity:1" d="M283 -267.5l-177.5 118.5l0 -62.5l106 -69l-106 -78.5l0 -62.5l177.5 122l0 32" />
</g>
<g id="PathID_112" transform="matrix(0.0352941, 0, 0, 0.0352941, 96, 516)">
<path style="fill:#FFFF99;fill-opacity:1" d="M402.5 -464l-29 70.5l-207 0q-1.5 18.5 -1.5 35.5q0 14 1 30l173.5 0l-24.5 70.5l-141.5 0q7 66.5 54.5 121q51.5 59 115.5 59q44.5 0 93.5 -20q49 -20 78.5 -51.5l0 108.5q-70 53 -182.5 53q-108 0 -179.5 -83.5q-62 -72.5 -80 -186.5l-58 0l0 -70.5l49 0q-2.5 -34 -0.5 -65.5l-48.5 0l0 -70.5l57.5 0q18.5 -116.5 87.5 -194.5q77 -86.5 189 -86.5q125 0 176.5 46.5l-44.5 82q-50.5 -38.5 -129.5 -38.5q-76 0 -125 59q-42 51.5 -54 132l229.5 0" />
</g>
<g id="PathID_113" transform="matrix(0.0352941, 0, 0, 0.0352941, 144, 516)">
<path style="fill:#FFFF99;fill-opacity:1" d="M249.5 -690.5l0 321.5l-50 0l0 -321.5l-104 0l0 -45l263.5 0l0 45l-109.5 0M627 -369.5l-41.5 -249l-73.5 251.5l-29.5 0l-77.5 -255l-38.5 252.5l-47.5 0l56 -366l37.5 0l84.5 283.5l83.5 -283.5l37.5 0l56.5 366l-47.5 0" />
</g>
</svg>
